<svg xmlns="http://www.w3.org/2000/svg" width="30.4" height="19.88" viewBox="0 0 30.4 19.88">
  <defs>
    <style>
      .cls-1 {
        fill: #626265;
        fill-rule: evenodd;
      }
    </style>
  </defs>
  <path id="ico_ranking04.svg" class="cls-1" d="M1407.58,1951.39a0.218,0.218,0,0,0,.23-0.18l0.24-.79v-0.06c0-.08-0.05-0.11-0.16-0.11-1.01.08-1.88,0.12-2.62,0.12l0.05-6.08c0.03-.89.05-1.97,0.06-3.25,0.04-1.79.06-2.92,0.07-3.39,0-.2-0.07-0.3-0.2-0.3l-2.33.62q-2.91,4.575-6.96,11.68a2.236,2.236,0,0,0-.29,1.07c0,0.44.12,0.67,0.35,0.67l2.46-.03h4.11v1.17a6.844,6.844,0,0,1-.34,2.65,0.827,0.827,0,0,1-.58.41,10.675,10.675,0,0,1-1.2.17,0.268,0.268,0,0,0-.23.33c0,0.22.08,0.34,0.23,0.34,1.47-.07,2.64-0.1,3.52-0.1,0.82,0,1.94.03,3.36,0.1,0.14,0,.21-0.12.21-0.34s-0.06-.33-0.18-0.33a9.87,9.87,0,0,1-1.14-.14,0.973,0.973,0,0,1-.74-0.54,2.588,2.588,0,0,1-.2-0.83q-0.03-.285-0.03-1.77v-1.14c1.04,0,1.81.01,2.31,0.05h0Zm-10.5-.99c-0.21,0-.32-0.05-0.32-0.15a0.6,0.6,0,0,1,.09-0.27c1.59-2.95,3.58-6.3,5.94-10.06-0.07,1.34-.12,2.95-0.15,4.84l-0.05,5.64h-5.51Zm16.59,2.31q0,2.49-.09,3.93a0.626,0.626,0,0,0,.12.44,0.7,0.7,0,0,0,.52.15,0.632,0.632,0,0,0,.78-0.63v-7.79a0.517,0.517,0,0,0,.39-0.34,0.185,0.185,0,0,0-.13-0.17,3.519,3.519,0,0,0-.75-0.17,18.385,18.385,0,0,0,1.67-3.53c0.37-.07.55-0.19,0.55-0.35a0.467,0.467,0,0,0-.33-0.27c-0.25-.1-0.8-0.28-1.66-0.55a12.523,12.523,0,0,1-.5,2.43,15.3,15.3,0,0,1-2.35,4.97,0.037,0.037,0,0,0-.01.03,0.112,0.112,0,0,0,.13.13,0.037,0.037,0,0,0,.03-0.01,12.879,12.879,0,0,0,1.63-1.67v3.4Zm3.39-5.57a5.343,5.343,0,0,1-1.09-.12l0.16,0.55a6.217,6.217,0,0,1,.93-0.09h8.43c0.14,0,.2-0.05.2-0.14a0.989,0.989,0,0,0-.43-0.5,3.614,3.614,0,0,0-1.03-.72,3.206,3.206,0,0,0-.98,1.02h-2.18v-2.62a0.766,0.766,0,0,0,.51-0.41q0-.315-2.01-0.51a15.172,15.172,0,0,1,.07,1.56v1.98h-2.58Zm-0.42,8.89a7.223,7.223,0,0,1-1.26-.12l0.17,0.55a8.863,8.863,0,0,1,1.14-.09h9.21c0.13,0,.2-0.05.2-0.14a1.291,1.291,0,0,0-.47-0.56,4.238,4.238,0,0,0-1.08-.81,3.889,3.889,0,0,0-1.1,1.17h-2.55a21.364,21.364,0,0,0,1.26-2.48c0.38-.88.87-2.21,1.49-3.99a2.1,2.1,0,0,0,.51-0.14,0.255,0.255,0,0,0,.15-0.25,0.287,0.287,0,0,0-.22-0.25c-0.17-.08-0.83-0.28-1.99-0.62a14.875,14.875,0,0,1-.24,1.97,44.661,44.661,0,0,1-1.41,5.76h-3.81Zm0.7-7.46a0.06,0.06,0,0,0-.06-0.03,0.09,0.09,0,0,0-.11.08v0.03a15.228,15.228,0,0,1,.77,4.98,0.661,0.661,0,0,0,.67.78,0.8,0.8,0,0,0,.66-0.36,1.775,1.775,0,0,0,.31-1.08q0-2.01-2.24-4.4h0Z" transform="translate(-1395.69 -1937.34)"/>
</svg>
