<svg xmlns="http://www.w3.org/2000/svg" width="26.906" height="15.34" viewBox="0 0 26.906 15.34">
  <defs>
    <style>
      .cls-1 {
        fill: #626265;
        fill-rule: evenodd;
      }
    </style>
  </defs>
  <path id="ico_ranking05.svg" class="cls-1" d="M515.426,2289.09c0.288,0,.979.02,2.076,0.04a0.2,0.2,0,0,0,.21-0.14l0.672-1.85v-0.03c0-.09-0.064-0.13-0.191-0.13-1.209.05-2.372,0.08-3.489,0.08-1.6,0-2.67-.01-3.218-0.02a0.42,0.42,0,0,0-.291.12,0.453,0.453,0,0,0-.12.27l-0.491,6.55q-0.021.15-.121,0.57a0.753,0.753,0,0,0-.02.14,0.361,0.361,0,0,0,.261.28,1.1,1.1,0,0,0,.311.08,0.321,0.321,0,0,0,.25-0.19,2.842,2.842,0,0,1,2.587-1.5,1.987,1.987,0,0,1,1.594.86,4.456,4.456,0,0,1,.822,2.84,7.612,7.612,0,0,1-.461,2.91,1.91,1.91,0,0,1-1.794,1.38,1.557,1.557,0,0,1-1.484-1.13,7.1,7.1,0,0,0-.411-0.91,1.07,1.07,0,0,0-.923-0.61,2.009,2.009,0,0,0-1.042.23,0.7,0.7,0,0,0-.432.61,2.2,2.2,0,0,0,1.394,1.74,5.81,5.81,0,0,0,2.9.71,4.465,4.465,0,0,0,3.338-1.27,4.966,4.966,0,0,0,1.364-3.68,4.682,4.682,0,0,0-.983-3.07,3.848,3.848,0,0,0-3.168-1.39,4.087,4.087,0,0,0-3.238,1.28c0.013-.15.033-0.33,0.06-0.56s0.053-.41.06-0.52l0.291-3.69h3.689Zm8.425,8.57c0,1.7-.03,3.05-0.091,4.04a0.645,0.645,0,0,0,.128.45,0.731,0.731,0,0,0,.534.15,0.643,0.643,0,0,0,.8-0.64v-8a0.531,0.531,0,0,0,.4-0.35,0.181,0.181,0,0,0-.128-0.17,4.094,4.094,0,0,0-.775-0.18,19.592,19.592,0,0,0,1.722-3.62q0.557-.12.557-0.36a0.459,0.459,0,0,0-.339-0.28c-0.25-.1-0.817-0.29-1.7-0.56a12.747,12.747,0,0,1-.519,2.49,15.557,15.557,0,0,1-2.414,5.1,0.066,0.066,0,0,0-.007.03,0.123,0.123,0,0,0,.135.14c0.01,0,.02-0.01.03-0.01a12.94,12.94,0,0,0,1.67-1.72v3.49Zm3.489-5.72a5.7,5.7,0,0,1-1.128-.12l0.173,0.57a5.475,5.475,0,0,1,.955-0.1H536c0.135,0,.2-0.05.2-0.15a1.063,1.063,0,0,0-.444-0.51,3.609,3.609,0,0,0-1.053-.73,3.128,3.128,0,0,0-1.015,1.04h-2.233v-2.69a0.758,0.758,0,0,0,.526-0.42c0-.21-0.689-0.39-2.068-0.52a15.756,15.756,0,0,1,.076,1.6v2.03H527.34Zm-0.436,9.13a7.69,7.69,0,0,1-1.294-.12l0.173,0.56a9.323,9.323,0,0,1,1.173-.09h9.452c0.141,0,.211-0.05.211-0.15a1.423,1.423,0,0,0-.481-0.57,4.593,4.593,0,0,0-1.113-.83,3.958,3.958,0,0,0-1.128,1.2H531.28a22.424,22.424,0,0,0,1.293-2.54c0.386-.9.895-2.27,1.527-4.1a3,3,0,0,0,.526-0.14,0.278,0.278,0,0,0,.158-0.26,0.3,0.3,0,0,0-.233-0.26q-0.264-.12-2.038-0.63a17.191,17.191,0,0,1-.248,2.02,46.822,46.822,0,0,1-1.444,5.91H526.9Zm0.722-7.66a0.059,0.059,0,0,0-.061-0.02c-0.075,0-.112.02-0.112,0.08v0.02a15.864,15.864,0,0,1,.789,5.11,0.684,0.684,0,0,0,.684.81,0.815,0.815,0,0,0,.677-0.37,1.8,1.8,0,0,0,.316-1.11q0-2.07-2.293-4.52h0Z" transform="translate(-509.719 -2286.97)"/>
</svg>
