<svg xmlns="http://www.w3.org/2000/svg" width="28.06" height="15.65" viewBox="0 0 28.06 15.65">
  <defs>
    <style>
      .cls-1 {
        fill: #626265;
        fill-rule: evenodd;
      }
    </style>
  </defs>
  <path id="ico_ranking08.svg" class="cls-1" d="M1076.73,2291.92a2.774,2.774,0,0,0,.75-1.98,2.865,2.865,0,0,0-1.01-2.22,4.856,4.856,0,0,0-5.94-.11,3.188,3.188,0,0,0-1.34,2.57,4.061,4.061,0,0,0,.54,2.17,5.487,5.487,0,0,0,2.23,1.82,7.9,7.9,0,0,0-2.21,1.47,3.219,3.219,0,0,0-.97,2.3,3.754,3.754,0,0,0,1.08,2.69,5.2,5.2,0,0,0,6.69.27,3.935,3.935,0,0,0,1.37-3.12,4.859,4.859,0,0,0-.61-2.53,5.767,5.767,0,0,0-2.51-2.06,6.408,6.408,0,0,0,1.93-1.27h0Zm-4.91-.48a2.1,2.1,0,0,1-.65-1.6,2.772,2.772,0,0,1,.53-1.76,2.013,2.013,0,0,1,1.68-.8,1.846,1.846,0,0,1,1.42.63,2.983,2.983,0,0,1,.67,2.04,3.147,3.147,0,0,1-1.26,2.91,8.8,8.8,0,0,1-2.39-1.42h0Zm3.24,4.63a2.689,2.689,0,0,1,.84,2,4.027,4.027,0,0,1-.59,2.27,2.172,2.172,0,0,1-1.92,1.01,2.074,2.074,0,0,1-1.68-.81,3.993,3.993,0,0,1-.75-2.57,5.719,5.719,0,0,1,.25-1.89,2.9,2.9,0,0,1,1.35-1.59,9.768,9.768,0,0,1,2.5,1.58h0Zm9.02,1.59c0,1.7-.03,3.05-0.09,4.04a0.671,0.671,0,0,0,.13.45,0.73,0.73,0,0,0,.53.15,0.642,0.642,0,0,0,.8-0.64v-8a0.525,0.525,0,0,0,.4-0.35,0.177,0.177,0,0,0-.13-0.17,4.157,4.157,0,0,0-.77-0.18,19.984,19.984,0,0,0,1.72-3.62,0.561,0.561,0,0,0,.56-0.36,0.475,0.475,0,0,0-.34-0.28c-0.25-.1-0.82-0.29-1.7-0.56a13.212,13.212,0,0,1-.52,2.49,15.7,15.7,0,0,1-2.41,5.1,0.037,0.037,0,0,0-.01.03,0.119,0.119,0,0,0,.13.14c0.01,0,.02-0.01.03-0.01a12.346,12.346,0,0,0,1.67-1.72v3.49Zm3.49-5.72a5.8,5.8,0,0,1-1.13-.12l0.18,0.57a5.379,5.379,0,0,1,.95-0.1h8.66a0.16,0.16,0,0,0,.2-0.15,1.082,1.082,0,0,0-.44-0.51,3.734,3.734,0,0,0-1.06-.73,3.069,3.069,0,0,0-1.01,1.04h-2.24v-2.69a0.746,0.746,0,0,0,.53-0.42c0-.21-0.69-0.39-2.07-0.52a16,16,0,0,1,.08,1.6v2.03h-2.65Zm-0.43,9.13a7.757,7.757,0,0,1-1.3-.12l0.18,0.56a9.281,9.281,0,0,1,1.17-.09h9.45q0.21,0,.21-0.15a1.416,1.416,0,0,0-.48-0.57,4.57,4.57,0,0,0-1.11-.83,3.95,3.95,0,0,0-1.13,1.2h-2.62a24.249,24.249,0,0,0,1.3-2.54c0.38-.9.89-2.27,1.52-4.1a3.069,3.069,0,0,0,.53-0.14,0.288,0.288,0,0,0,.16-0.26,0.3,0.3,0,0,0-.24-0.26c-0.17-.08-0.85-0.29-2.03-0.63a18.481,18.481,0,0,1-.25,2.02,47.042,47.042,0,0,1-1.45,5.91h-3.91Zm0.72-7.66a0.056,0.056,0,0,0-.06-0.02c-0.08,0-.12.02-0.12,0.08v0.02a15.755,15.755,0,0,1,.79,5.11,0.686,0.686,0,0,0,.69.81,0.835,0.835,0,0,0,.68-0.37,1.8,1.8,0,0,0,.31-1.11q0-2.07-2.29-4.52h0Z" transform="translate(-1068.78 -2286.66)"/>
</svg>
