<svg xmlns="http://www.w3.org/2000/svg" width="38.4" height="15.78" viewBox="0 0 38.4 15.78">
  <defs>
    <style>
      .cls-1 {
        fill: #626265;
        fill-rule: evenodd;
      }
    </style>
  </defs>
  <path id="ico_ranking10.svg" class="cls-1" d="M1437.38,2288.39a0.26,0.26,0,0,0-.23.19,0.821,0.821,0,0,0,.03.18,0.249,0.249,0,0,0,.22.25,0.9,0.9,0,0,0,.15-0.03l0.8-.22a2.689,2.689,0,0,1,.72-0.12,0.519,0.519,0,0,1,.48.19,3.407,3.407,0,0,1,.21,1.58v7.35a9.363,9.363,0,0,1-.21,2.72,0.729,0.729,0,0,1-.56.4,7.207,7.207,0,0,1-1.17.14,0.254,0.254,0,0,0-.21.3q0,0.3.21,0.3c0.97-.04,2-0.06,3.11-0.06,1.07,0,2.09.02,3.04,0.06q0.18,0,.18-0.3a0.251,0.251,0,0,0-.18-0.3c-0.57-.06-0.93-0.1-1.06-0.13a0.867,0.867,0,0,1-.68-0.41,1.849,1.849,0,0,1-.19-0.69c-0.03-.29-0.04-0.97-0.04-2.03v-6.43c0-.6.01-1.31,0.03-2.14,0.02-1.23.04-2.04,0.05-2.4q0-.24-0.33-0.24c-1.54.72-3,1.34-4.37,1.84h0Zm12.7,0.07a10.821,10.821,0,0,0-1.37,5.95,11.445,11.445,0,0,0,1.04,5.3,3.835,3.835,0,0,0,3.55,2.28,3.656,3.656,0,0,0,3.19-1.83,10.526,10.526,0,0,0,1.38-5.87,11.389,11.389,0,0,0-1.06-5.31,3.832,3.832,0,0,0-3.51-2.33,3.681,3.681,0,0,0-3.22,1.81h0Zm4.89,0.5a20.662,20.662,0,0,1,.49,5.39,23.293,23.293,0,0,1-.37,4.85c-0.34,1.44-.93,2.15-1.79,2.15-0.77,0-1.33-.55-1.68-1.66a20.22,20.22,0,0,1-.5-5.34,23.71,23.71,0,0,1,.37-4.9c0.33-1.45.94-2.17,1.81-2.17,0.77,0,1.33.56,1.67,1.68h0Zm7.81,8.7c0,1.7-.03,3.05-0.09,4.04a0.621,0.621,0,0,0,.13.45,0.714,0.714,0,0,0,.53.15,0.646,0.646,0,0,0,.8-0.64v-8a0.525,0.525,0,0,0,.4-0.35,0.177,0.177,0,0,0-.13-0.17,4.157,4.157,0,0,0-.77-0.18,19.984,19.984,0,0,0,1.72-3.62c0.37-.08.55-0.2,0.55-0.36a0.451,0.451,0,0,0-.33-0.28c-0.25-.1-0.82-0.29-1.7-0.56a13.212,13.212,0,0,1-.52,2.49,15.5,15.5,0,0,1-2.42,5.1v0.03a0.119,0.119,0,0,0,.13.14c0.01,0,.02-0.01.03-0.01a12.94,12.94,0,0,0,1.67-1.72v3.49Zm3.49-5.72a5.722,5.722,0,0,1-1.13-.12l0.18,0.57a5.379,5.379,0,0,1,.95-0.1h8.66a0.16,0.16,0,0,0,.2-0.15,1.066,1.066,0,0,0-.45-0.51,3.618,3.618,0,0,0-1.05-.73,3.069,3.069,0,0,0-1.01,1.04h-2.24v-2.69a0.772,0.772,0,0,0,.53-0.42c0-.21-0.69-0.39-2.07-0.52a16,16,0,0,1,.08,1.6v2.03h-2.65Zm-0.44,9.13a7.738,7.738,0,0,1-1.29-.12l0.17,0.56a9.559,9.559,0,0,1,1.18-.09h9.45q0.21,0,.21-0.15a1.416,1.416,0,0,0-.48-0.57,4.57,4.57,0,0,0-1.11-.83,3.821,3.821,0,0,0-1.13,1.2h-2.62a22.406,22.406,0,0,0,1.29-2.54c0.39-.9.9-2.27,1.53-4.1a3.069,3.069,0,0,0,.53-0.14,0.279,0.279,0,0,0,.15-0.26,0.287,0.287,0,0,0-.23-0.26q-0.255-.12-2.04-0.63a15.8,15.8,0,0,1-.24,2.02,47.042,47.042,0,0,1-1.45,5.91h-3.92Zm0.73-7.66a0.056,0.056,0,0,0-.06-0.02c-0.08,0-.12.02-0.12,0.08v0.02a15.755,15.755,0,0,1,.79,5.11,0.686,0.686,0,0,0,.69.81,0.8,0.8,0,0,0,.67-0.37,1.806,1.806,0,0,0,.32-1.11q0-2.07-2.29-4.52h0Z" transform="translate(-1437.16 -2286.53)"/>
</svg>
