<svg xmlns="http://www.w3.org/2000/svg" width="25.844" height="15.4" viewBox="0 0 25.844 15.4">
  <defs>
    <style>
      .cls-1 {
        fill: #626265;
        fill-rule: evenodd;
      }
    </style>
  </defs>
  <path id="ico_ranking07.svg" class="cls-1" d="M883.172,2290.69a0.3,0.3,0,0,0-.01.07c0,0.08.077,0.14,0.231,0.16a1.573,1.573,0,0,0,.17.02,0.229,0.229,0,0,0,.2-0.17,3.951,3.951,0,0,1,.721-1.36,2.241,2.241,0,0,1,1.685-.45h4.451a57.988,57.988,0,0,0-3.95,6.91,13.392,13.392,0,0,0-1.474,5.21c0,0.61.431,0.91,1.294,0.91a1.93,1.93,0,0,0,1.012-.27,0.984,0.984,0,0,0,.542-0.85l-0.03-1.37a12.715,12.715,0,0,1,.31-2.71,31.556,31.556,0,0,1,3.59-8.91,1.186,1.186,0,0,0,.08-0.53c0-.29-0.054-0.43-0.16-0.43q-2,.06-4.011.06-2.767,0-4.121-.06c-0.1.89-.277,2.14-0.531,3.77h0Zm13.057,6.97c0,1.7-.03,3.05-0.09,4.04a0.645,0.645,0,0,0,.128.45,0.731,0.731,0,0,0,.534.15,0.643,0.643,0,0,0,.8-0.64v-8a0.529,0.529,0,0,0,.4-0.35,0.18,0.18,0,0,0-.127-0.17,4.137,4.137,0,0,0-.775-0.18,19.592,19.592,0,0,0,1.722-3.62q0.556-.12.557-0.36a0.459,0.459,0,0,0-.339-0.28c-0.251-.1-0.817-0.29-1.7-0.56a12.821,12.821,0,0,1-.519,2.49,15.577,15.577,0,0,1-2.414,5.1,0.066,0.066,0,0,0-.007.03,0.123,0.123,0,0,0,.135.14c0.01,0,.02-0.01.03-0.01a12.87,12.87,0,0,0,1.669-1.72v3.49Zm3.489-5.72a5.686,5.686,0,0,1-1.127-.12l0.172,0.57a5.484,5.484,0,0,1,.955-0.1h8.655c0.136,0,.2-0.05.2-0.15a1.058,1.058,0,0,0-.443-0.51,3.638,3.638,0,0,0-1.053-.73,3.117,3.117,0,0,0-1.015,1.04h-2.233v-2.69a0.761,0.761,0,0,0,.526-0.42c0-.21-0.689-0.39-2.068-0.52,0.05,0.5.075,1.03,0.075,1.6v2.03h-2.647Zm-0.436,9.13a7.678,7.678,0,0,1-1.293-.12l0.173,0.56a9.323,9.323,0,0,1,1.173-.09h9.452c0.14,0,.211-0.05.211-0.15a1.42,1.42,0,0,0-.482-0.57,4.551,4.551,0,0,0-1.113-.83,3.986,3.986,0,0,0-1.128,1.2h-2.616a22.424,22.424,0,0,0,1.293-2.54c0.386-.9.895-2.27,1.527-4.1a3,3,0,0,0,.526-0.14,0.278,0.278,0,0,0,.158-0.26,0.3,0.3,0,0,0-.233-0.26q-0.264-.12-2.038-0.63a17.191,17.191,0,0,1-.248,2.02,46.822,46.822,0,0,1-1.444,5.91h-3.918Zm0.722-7.66a0.056,0.056,0,0,0-.06-0.02c-0.075,0-.113.02-0.113,0.08v0.02a15.836,15.836,0,0,1,.79,5.11,0.684,0.684,0,0,0,.684.81,0.817,0.817,0,0,0,.677-0.37,1.8,1.8,0,0,0,.316-1.11q0-2.07-2.294-4.52h0Z" transform="translate(-883.156 -2286.91)"/>
</svg>
