<svg xmlns="http://www.w3.org/2000/svg" width="26.75" height="15.78" viewBox="0 0 26.75 15.78">
  <defs>
    <style>
      .cls-1 {
        fill: #626265;
        fill-rule: evenodd;
      }
    </style>
  </defs>
  <path id="ico_ranking06.svg" class="cls-1" d="M699.028,2294.31q0.461-4.095,2.707-5.74a5.406,5.406,0,0,1,3.038-1.02,0.193,0.193,0,0,0,.2-0.23,0.634,0.634,0,0,0-.16-0.38,0.773,0.773,0,0,0-.551-0.39,7.214,7.214,0,0,0-1.5.67,13.533,13.533,0,0,0-1.925,1.23,12.08,12.08,0,0,0-2.848,3.04,8.614,8.614,0,0,0-1.323,4.72,6.545,6.545,0,0,0,1.163,4.02,4.519,4.519,0,0,0,6.657.55,4.8,4.8,0,0,0,1.354-3.58,5.135,5.135,0,0,0-.873-3.1,3.59,3.59,0,0,0-3.088-1.46,3.135,3.135,0,0,0-1.453.35,3.006,3.006,0,0,0-1.274,1.32h-0.12Zm3.82,0.11a5.731,5.731,0,0,1,.561,2.8,7.468,7.468,0,0,1-.441,2.79,1.75,1.75,0,0,1-1.6,1.34,1.811,1.811,0,0,1-1.624-1.06,8.181,8.181,0,0,1-.712-3.87,3.034,3.034,0,0,1,.271-1.27,2.226,2.226,0,0,1,2-1.71,1.7,1.7,0,0,1,1.544.98h0Zm7.8,3.24c0,1.7-.03,3.05-0.091,4.04a0.645,0.645,0,0,0,.128.45,0.731,0.731,0,0,0,.534.15,0.643,0.643,0,0,0,.8-0.64v-8a0.531,0.531,0,0,0,.4-0.35,0.181,0.181,0,0,0-.128-0.17,4.094,4.094,0,0,0-.775-0.18,19.592,19.592,0,0,0,1.722-3.62q0.557-.12.557-0.36a0.459,0.459,0,0,0-.339-0.28c-0.25-.1-0.817-0.29-1.7-0.56a12.747,12.747,0,0,1-.519,2.49,15.557,15.557,0,0,1-2.414,5.1,0.066,0.066,0,0,0-.007.03,0.123,0.123,0,0,0,.135.14c0.01,0,.02-0.01.03-0.01a12.94,12.94,0,0,0,1.67-1.72v3.49Zm3.489-5.72a5.7,5.7,0,0,1-1.128-.12l0.173,0.57a5.475,5.475,0,0,1,.955-0.1H722.8c0.135,0,.2-0.05.2-0.15a1.063,1.063,0,0,0-.444-0.51,3.609,3.609,0,0,0-1.053-.73,3.128,3.128,0,0,0-1.015,1.04h-2.233v-2.69a0.758,0.758,0,0,0,.526-0.42c0-.21-0.689-0.39-2.068-0.52a15.756,15.756,0,0,1,.076,1.6v2.03H714.14Zm-0.436,9.13a7.69,7.69,0,0,1-1.294-.12l0.173,0.56a9.323,9.323,0,0,1,1.173-.09h9.452c0.141,0,.211-0.05.211-0.15a1.423,1.423,0,0,0-.481-0.57,4.593,4.593,0,0,0-1.113-.83,3.958,3.958,0,0,0-1.128,1.2H718.08a22.424,22.424,0,0,0,1.293-2.54c0.386-.9.895-2.27,1.527-4.1a3,3,0,0,0,.526-0.14,0.278,0.278,0,0,0,.158-0.26,0.3,0.3,0,0,0-.233-0.26q-0.264-.12-2.038-0.63a17.191,17.191,0,0,1-.248,2.02,46.822,46.822,0,0,1-1.444,5.91H713.7Zm0.722-7.66a0.059,0.059,0,0,0-.061-0.02c-0.075,0-.112.02-0.112,0.08v0.02a15.864,15.864,0,0,1,.789,5.11,0.684,0.684,0,0,0,.684.81,0.815,0.815,0,0,0,.677-0.37,1.8,1.8,0,0,0,.316-1.11q0-2.07-2.293-4.52h0Z" transform="translate(-696.656 -2286.53)"/>
</svg>
