<svg xmlns="http://www.w3.org/2000/svg" width="26.06" height="15.65" viewBox="0 0 26.06 15.65">
  <defs>
    <style>
      .cls-1 {
        fill: #626265;
        fill-rule: evenodd;
      }
    </style>
  </defs>
  <path id="ico_ranking09.svg" class="cls-1" d="M1262.96,2294.33a12.484,12.484,0,0,1-.72,3.63,4.663,4.663,0,0,1-1.93,2.34,6.089,6.089,0,0,1-2.83.74,0.22,0.22,0,0,0-.23.23,0.609,0.609,0,0,0,.12.33,0.615,0.615,0,0,0,.5.39,9.864,9.864,0,0,0,3.32-1.45,9.27,9.27,0,0,0,2.79-2.75,9.788,9.788,0,0,0,1.32-5.27,6.889,6.889,0,0,0-1.1-4.04,4.1,4.1,0,0,0-3.57-1.83,4.268,4.268,0,0,0-3.12,1.21,5.266,5.266,0,0,0-.42,6.61,3.732,3.732,0,0,0,3.05,1.38,3.041,3.041,0,0,0,2.72-1.52h0.1Zm-0.68-5.91a7.774,7.774,0,0,1,.65,3.52,3.5,3.5,0,0,1-.18,1.32c-0.55,1.21-1.25,1.81-2.12,1.81a1.7,1.7,0,0,1-1.51-.97,5.561,5.561,0,0,1-.59-2.79,6.805,6.805,0,0,1,.46-2.71,1.789,1.789,0,0,1,1.64-1.32,1.827,1.827,0,0,1,1.65,1.14h0Zm7.15,9.24c0,1.7-.03,3.05-0.09,4.04a0.621,0.621,0,0,0,.13.45,0.714,0.714,0,0,0,.53.15,0.646,0.646,0,0,0,.8-0.64v-8a0.545,0.545,0,0,0,.4-0.35,0.19,0.19,0,0,0-.13-0.17,4.119,4.119,0,0,0-.78-0.18,19.987,19.987,0,0,0,1.73-3.62c0.37-.08.55-0.2,0.55-0.36a0.452,0.452,0,0,0-.34-0.28c-0.25-.1-0.81-0.29-1.7-0.56a13.131,13.131,0,0,1-.51,2.49,15.7,15.7,0,0,1-2.42,5.1c0,0.01-.01.02-0.01,0.03a0.127,0.127,0,0,0,.14.14c0.01,0,.02-0.01.03-0.01a12.94,12.94,0,0,0,1.67-1.72v3.49Zm3.49-5.72a5.722,5.722,0,0,1-1.13-.12l0.17,0.57a5.572,5.572,0,0,1,.96-0.1h8.65q0.21,0,.21-0.15a1.066,1.066,0,0,0-.45-0.51,3.618,3.618,0,0,0-1.05-.73,3.146,3.146,0,0,0-1.02,1.04h-2.23v-2.69a0.772,0.772,0,0,0,.53-0.42c0-.21-0.69-0.39-2.07-0.52a16,16,0,0,1,.08,1.6v2.03h-2.65Zm-0.44,9.13a7.738,7.738,0,0,1-1.29-.12l0.17,0.56a9.281,9.281,0,0,1,1.17-.09h9.46q0.21,0,.21-0.15a1.416,1.416,0,0,0-.48-0.57,4.722,4.722,0,0,0-1.12-.83,3.992,3.992,0,0,0-1.12,1.2h-2.62a22.406,22.406,0,0,0,1.29-2.54c0.39-.9.9-2.27,1.53-4.1a2.888,2.888,0,0,0,.52-0.14,0.272,0.272,0,0,0,.16-0.26,0.287,0.287,0,0,0-.23-0.26q-0.27-.12-2.04-0.63a16.257,16.257,0,0,1-.25,2.02,45.292,45.292,0,0,1-1.44,5.91h-3.92Zm0.72-7.66a0.056,0.056,0,0,0-.06-0.02c-0.07,0-.11.02-0.11,0.08v0.02a15.755,15.755,0,0,1,.79,5.11,0.686,0.686,0,0,0,.69.81,0.8,0.8,0,0,0,.67-0.37,1.806,1.806,0,0,0,.32-1.11q0-2.07-2.3-4.52h0Z" transform="translate(-1256.13 -2286.66)"/>
</svg>
