<svg xmlns="http://www.w3.org/2000/svg" viewBox="0 0 170.88 25.01"><defs><style>.cls-1{fill:#5d5d5d;}</style></defs><title>tit_new_arrival</title><g id="レイヤー_2" data-name="レイヤー 2"><g id="レイヤー_1-2" data-name="レイヤー 1"><path class="cls-1" d="M4.41,3.88v15.3a13.15,13.15,0,0,0,.2,2.67,3,3,0,0,0,.75,1.42A2.92,2.92,0,0,0,6.48,24a5.57,5.57,0,0,0,1.62.28v.41H0v-.41A5.65,5.65,0,0,0,1.63,24a3,3,0,0,0,1.11-.74,2.94,2.94,0,0,0,.75-1.43,13.18,13.18,0,0,0,.2-2.66v-13a13.06,13.06,0,0,0-.2-2.65,2.94,2.94,0,0,0-.75-1.43,2.72,2.72,0,0,0-1.1-.74A5.6,5.6,0,0,0,0,1.11V.7H6.77L21,18.91V6.22a13.15,13.15,0,0,0-.2-2.67A3,3,0,0,0,19,1.39a5.65,5.65,0,0,0-1.63-.28V.7h8.1v.41a3.64,3.64,0,0,0-2.74,1A3,3,0,0,0,22,3.56a13.06,13.06,0,0,0-.2,2.65V24.7H21Z"/><path class="cls-1" d="M30.53,15.13c0,.58-.07,1-.07,1.25a10.08,10.08,0,0,0,.45,3,7.29,7.29,0,0,0,1.22,2.43,5.73,5.73,0,0,0,4.39,2.11,5.17,5.17,0,0,0,1.8-.32,3.72,3.72,0,0,0,1.41-.88,5.05,5.05,0,0,0,1.09-2l.37.13a4.93,4.93,0,0,1-2,3.1,6.88,6.88,0,0,1-4,1,9.07,9.07,0,0,1-3.71-.68,6.59,6.59,0,0,1-2.62-2.11,7.88,7.88,0,0,1-1.5-4.89,7.51,7.51,0,0,1,2.83-6.2,7.37,7.37,0,0,1,4.7-1.64,6.73,6.73,0,0,1,2.6.5,5.48,5.48,0,0,1,2,1.45,5.42,5.42,0,0,1,1.28,3.69Zm7.67-.68a6.68,6.68,0,0,0-.65-2.71,3.76,3.76,0,0,0-1.26-1.36,3.11,3.11,0,0,0-1.68-.5A3.38,3.38,0,0,0,32,11.18a5.75,5.75,0,0,0-1.34,3.27Z"/><path class="cls-1" d="M42.24,9.76h6.84v.38c-1.31.07-2,.58-2,1.53a12.45,12.45,0,0,0,.7,2.91l2.13,6.55,3-7.92a4.41,4.41,0,0,0,.35-1.47c0-1-.61-1.54-1.83-1.6V9.76h6.73v.38a3,3,0,0,0-1.21.37,1.3,1.3,0,0,0-.56,1.16,6.7,6.7,0,0,0,.33,1.74l2.31,7.72,2.73-6.95a6.27,6.27,0,0,0,.52-2.06,1.72,1.72,0,0,0-.66-1.45,3.42,3.42,0,0,0-1.2-.53V9.76h5.17v.38a2.1,2.1,0,0,0-1.35.49,2.8,2.8,0,0,0-.73.91,15,15,0,0,0-.82,1.82l-.37.89L58.17,24.7h-.62L53.71,13,49.08,24.7h-.6L45,14.06l-.43-1.28a4.7,4.7,0,0,0-1.19-2.2,2.78,2.78,0,0,0-1.11-.44Z"/><path class="cls-1" d="M99,24.7H87.43v-.41a5.36,5.36,0,0,0,2.18-.52,2.13,2.13,0,0,0,1.09-1.9,5.5,5.5,0,0,0-.49-1.94l-.3-.73-1.69-4.15H80.49l-.91,2.42-.44,1.09a8.68,8.68,0,0,0-.79,3,2.55,2.55,0,0,0,.29,1.22,2.46,2.46,0,0,0,.78.91,3.53,3.53,0,0,0,1.76.56v.41H73.3v-.41a3.6,3.6,0,0,0,1.64-.45,5,5,0,0,0,1.37-1.3,10.62,10.62,0,0,0,1.1-1.86c.35-.76.82-1.89,1.41-3.4L85.25.7h1L93.9,19.18a31.41,31.41,0,0,0,1.37,3,4.56,4.56,0,0,0,1.11,1.35,3,3,0,0,0,1,.48,9.64,9.64,0,0,0,1.63.29Zm-11-10.37L84.25,5.22l-3.48,9.11Z"/><path class="cls-1" d="M104.12,12.2a5,5,0,0,1,1.42-1.67,5.6,5.6,0,0,1,3.32-1,2.62,2.62,0,0,1,1.74.51,1.43,1.43,0,0,1,.55,1.12,1.07,1.07,0,0,1-.33.81,1.15,1.15,0,0,1-.83.32,1.34,1.34,0,0,1-1-.49l-.55-.6a2,2,0,0,0-1.52-.68c-.8,0-1.42.51-1.87,1.54a11.25,11.25,0,0,0-.67,4.3v3.29l0,1.33a8,8,0,0,0,.14,1.75,1.93,1.93,0,0,0,.55.92,3.74,3.74,0,0,0,1.81.72v.37H99.09v-.37a4.74,4.74,0,0,0,1.51-.4,1.78,1.78,0,0,0,.74-.86,3.69,3.69,0,0,0,.27-1.22c0-.54.08-1.32.08-2.35V15.18a24,24,0,0,0-.09-2.53,2.79,2.79,0,0,0-.39-1.18,1.82,1.82,0,0,0-.72-.71,3.34,3.34,0,0,0-1.21-.27v-.37l4.53-.63A15,15,0,0,1,104.12,12.2Z"/><path class="cls-1" d="M116.63,12.2a5.1,5.1,0,0,1,1.42-1.67,5.63,5.63,0,0,1,3.33-1,2.62,2.62,0,0,1,1.74.51,1.42,1.42,0,0,1,.54,1.12,1.1,1.1,0,0,1-.32.81,1.17,1.17,0,0,1-.84.32,1.35,1.35,0,0,1-1-.49l-.54-.6a2,2,0,0,0-1.53-.68c-.8,0-1.42.51-1.86,1.54a11.06,11.06,0,0,0-.67,4.3v3.29l0,1.33a7.45,7.45,0,0,0,.14,1.75,1.84,1.84,0,0,0,.54.92,3.74,3.74,0,0,0,1.81.72v.37H111.6v-.37a4.74,4.74,0,0,0,1.52-.4,1.71,1.71,0,0,0,.73-.86,3.92,3.92,0,0,0,.28-1.22c.05-.54.08-1.32.08-2.35V15.18a24,24,0,0,0-.09-2.53,2.79,2.79,0,0,0-.39-1.18,2,2,0,0,0-.72-.71,3.39,3.39,0,0,0-1.21-.27v-.37l4.53-.63A14.86,14.86,0,0,1,116.63,12.2Z"/><path class="cls-1" d="M124.31,10.12l5.07-.63V21a8,8,0,0,0,.14,1.74,1.88,1.88,0,0,0,.55.92,3.74,3.74,0,0,0,1.81.72v.37h-7.77v-.37a4.67,4.67,0,0,0,1.51-.4,1.73,1.73,0,0,0,.74-.86,3.69,3.69,0,0,0,.27-1.22c0-.54.08-1.32.08-2.35V15.18a24,24,0,0,0-.09-2.53,2.78,2.78,0,0,0-.38-1.18,2,2,0,0,0-.72-.71,3.45,3.45,0,0,0-1.22-.27ZM128,3.18a1.54,1.54,0,0,1-1.14-.44,1.48,1.48,0,0,1-.45-1.11,1.44,1.44,0,0,1,.46-1.09A1.54,1.54,0,0,1,128,.09a1.57,1.57,0,0,1,1.13.45,1.44,1.44,0,0,1,.46,1.09,1.48,1.48,0,0,1-.45,1.11A1.54,1.54,0,0,1,128,3.18Z"/><path class="cls-1" d="M132.12,9.76h6.82v.38a3.54,3.54,0,0,0-1.06.35,1.25,1.25,0,0,0-.56,1.13,4.1,4.1,0,0,0,.18,1.1c.11.42.33,1,.64,1.85L141,21.78l2.86-7.51a7.93,7.93,0,0,0,.63-2.48,1.5,1.5,0,0,0-.54-1.28,2.91,2.91,0,0,0-1-.37V9.76h4.85v.38a3.26,3.26,0,0,0-1.58.88,11.31,11.31,0,0,0-1.74,3.32L140.36,24.7h-1L135,13.81a16,16,0,0,0-1.46-3,1.62,1.62,0,0,0-.54-.41,3.71,3.71,0,0,0-.88-.22Z"/><path class="cls-1" d="M162.79,23l.3.18a2.72,2.72,0,0,1-2.9,1.84,3.4,3.4,0,0,1-2.08-.61A4.6,4.6,0,0,1,157,23a11.19,11.19,0,0,1-1.78,1.39,5.45,5.45,0,0,1-2.66.63,4.69,4.69,0,0,1-3.07-.93,3.07,3.07,0,0,1-1.14-2.51,3.45,3.45,0,0,1,.93-2.45,4.24,4.24,0,0,1,1.22-.87,12,12,0,0,1,2-.65c1-.26,1.78-.48,2.26-.65a4.65,4.65,0,0,0,1.22-.64,2.07,2.07,0,0,0,.78-.95,4.3,4.3,0,0,0,.21-1.51,4.69,4.69,0,0,0-.78-3,2.45,2.45,0,0,0-.9-.71,2.72,2.72,0,0,0-1.15-.26,2.29,2.29,0,0,0-1.29.37,2.24,2.24,0,0,0-.84,1l-.44,1a1.26,1.26,0,0,1-1.26.82,1.4,1.4,0,0,1-1-.39,1.35,1.35,0,0,1-.4-1c0-.59.42-1.1,1.27-1.51a7.82,7.82,0,0,1,1.7-.52,10.39,10.39,0,0,1,2-.2,10.28,10.28,0,0,1,2.27.28,8.15,8.15,0,0,1,2,.72,2.84,2.84,0,0,1,1.43,1.69,8,8,0,0,1,.14,1.78v6.5a11.23,11.23,0,0,0,.14,2.25A1.4,1.4,0,0,0,161.21,24a1.67,1.67,0,0,0,.85-.19A3,3,0,0,0,162.79,23ZM157,16.07a12.16,12.16,0,0,1-2.08,1.39,16.41,16.41,0,0,0-1.77,1,4.81,4.81,0,0,0-.9.85,3.65,3.65,0,0,0-.82,2.37,2.83,2.83,0,0,0,.64,1.91,2,2,0,0,0,1.62.76,2.76,2.76,0,0,0,1.62-.54,3.26,3.26,0,0,0,1.15-1.43A8.44,8.44,0,0,0,157,19Z"/><path class="cls-1" d="M163.3.63,168.36,0V19.6l0,1.34a8.11,8.11,0,0,0,.14,1.75,1.93,1.93,0,0,0,.55.92,3.7,3.7,0,0,0,1.81.72v.37h-7.77v-.37a4.74,4.74,0,0,0,1.51-.4,1.85,1.85,0,0,0,.74-.87,3.69,3.69,0,0,0,.27-1.22c.05-.54.08-1.33.08-2.36V5.71a24,24,0,0,0-.09-2.53,2.83,2.83,0,0,0-.39-1.2,1.79,1.79,0,0,0-.72-.7A3.16,3.16,0,0,0,163.3,1Z"/></g></g></svg>