<svg xmlns="http://www.w3.org/2000/svg" viewBox="0 0 117.3 31.13"><defs><style>.cls-1{fill:#5d5d5d;}</style></defs><title>tit_ranking</title><g id="レイヤー_2" data-name="レイヤー 2"><g id="レイヤー_1-2" data-name="レイヤー 1"><path class="cls-1" d="M7.54,13v6.22a13.18,13.18,0,0,0,.2,2.66,3,3,0,0,0,.75,1.43,3,3,0,0,0,1.1.73,5.25,5.25,0,0,0,1.64.29v.41H0v-.41A5.25,5.25,0,0,0,1.64,24a2.91,2.91,0,0,0,1.1-.73,2.8,2.8,0,0,0,.76-1.42,13.32,13.32,0,0,0,.19-2.67v-13A13.32,13.32,0,0,0,3.5,3.55a2.8,2.8,0,0,0-.76-1.42,2.68,2.68,0,0,0-1.11-.74A5.65,5.65,0,0,0,0,1.11V.7H8.47c1.42,0,2.35,0,2.8,0a13.54,13.54,0,0,1,4.27.74,5.84,5.84,0,0,1,2.7,2.1,5.57,5.57,0,0,1,1,3.24,5.35,5.35,0,0,1-2.08,4.4,6.24,6.24,0,0,1-1.4.81,12.06,12.06,0,0,1-2,.59,5.42,5.42,0,0,1,1.56.92,3.87,3.87,0,0,1,.74.92c.22.37.56,1,1,2q1.56,3.21,2.36,4.7a15.79,15.79,0,0,0,1.35,2.16,2.82,2.82,0,0,0,.85.75,3.16,3.16,0,0,0,1.14.28v.41H16.84c-.29-.65-.48-1.06-.56-1.23l-1.23-2.8a45.93,45.93,0,0,0-2.24-4.45,9.06,9.06,0,0,0-2.05-2.61,3.06,3.06,0,0,0-1-.51A5.15,5.15,0,0,0,8.4,13Zm0-.39h.67a13.43,13.43,0,0,0,3.12-.25,4.07,4.07,0,0,0,1.77-1,5.76,5.76,0,0,0,1.84-4.36,6.58,6.58,0,0,0-.53-2.61,5.51,5.51,0,0,0-1.49-2,4.16,4.16,0,0,0-1.76-.83,13.37,13.37,0,0,0-2.9-.24H7.54Z"/><path class="cls-1" d="M38,23l.3.18A2.72,2.72,0,0,1,35.37,25a3.38,3.38,0,0,1-2.08-.61A4.75,4.75,0,0,1,32.16,23a11.23,11.23,0,0,1-1.77,1.39,5.45,5.45,0,0,1-2.66.63,4.74,4.74,0,0,1-3.08-.93,3.1,3.1,0,0,1-1.13-2.51,3.45,3.45,0,0,1,.93-2.45,4.34,4.34,0,0,1,1.21-.87,12.18,12.18,0,0,1,2-.65c1-.26,1.77-.48,2.26-.65a4.65,4.65,0,0,0,1.22-.64,2,2,0,0,0,.77-.95,4.26,4.26,0,0,0,.22-1.51,4.69,4.69,0,0,0-.78-3,2.45,2.45,0,0,0-.9-.71,2.75,2.75,0,0,0-1.15-.26,2.27,2.27,0,0,0-1.29.37,2.24,2.24,0,0,0-.84,1l-.44,1a1.27,1.27,0,0,1-1.27.82,1.38,1.38,0,0,1-1-.39,1.35,1.35,0,0,1-.4-1c0-.59.42-1.1,1.26-1.51A8.18,8.18,0,0,1,27,9.69a10.55,10.55,0,0,1,2-.2,10.29,10.29,0,0,1,2.28.28,8.15,8.15,0,0,1,2,.72,2.79,2.79,0,0,1,1.42,1.69A7.41,7.41,0,0,1,34.8,14v6.5A11,11,0,0,0,35,22.71,1.39,1.39,0,0,0,36.39,24a1.7,1.7,0,0,0,.85-.19A3.12,3.12,0,0,0,38,23Zm-5.82-6.92a12.56,12.56,0,0,1-2.08,1.39,16.41,16.41,0,0,0-1.77,1,4.81,4.81,0,0,0-.9.85,3.65,3.65,0,0,0-.82,2.37,2.83,2.83,0,0,0,.64,1.91,2,2,0,0,0,1.62.76,2.76,2.76,0,0,0,1.62-.54,3.26,3.26,0,0,0,1.15-1.43A8.44,8.44,0,0,0,32.15,19Z"/><path class="cls-1" d="M43.29,9.49a8,8,0,0,1,.25,1.91v.28a7.06,7.06,0,0,1,5.19-2.19,5.75,5.75,0,0,1,3.62,1.06A3.49,3.49,0,0,1,53.7,13.5v7.44a8,8,0,0,0,.14,1.75,1.88,1.88,0,0,0,.55.92,3.6,3.6,0,0,0,1.81.72v.37H48.43v-.37a4.49,4.49,0,0,0,1.51-.4,1.85,1.85,0,0,0,.74-.87A3.69,3.69,0,0,0,51,21.84c0-.54.08-1.32.08-2.34V15.78A21.06,21.06,0,0,0,50.9,13a3.53,3.53,0,0,0-.5-1.44,2.7,2.7,0,0,0-1.16-1,4,4,0,0,0-1.67-.34,4.36,4.36,0,0,0-1.83.39,3.3,3.3,0,0,0-1.34,1.05,3.79,3.79,0,0,0-.69,1.59,18,18,0,0,0-.17,2.94v3.44l0,1.3a8,8,0,0,0,.14,1.75,1.8,1.8,0,0,0,.54.92,3.69,3.69,0,0,0,1.81.72v.37H38.29v-.37a4.49,4.49,0,0,0,1.51-.4,1.78,1.78,0,0,0,.74-.86,4.29,4.29,0,0,0,.27-1.22c0-.54.08-1.32.08-2.35V15.18a24,24,0,0,0-.09-2.53,2.79,2.79,0,0,0-.39-1.18,2,2,0,0,0-.72-.71,3.34,3.34,0,0,0-1.21-.27v-.37Z"/><path class="cls-1" d="M62.28,17.6l3.19-3.5a13.46,13.46,0,0,0,1.32-1.65,2,2,0,0,0,.33-1.08,1.05,1.05,0,0,0-.77-1,4.88,4.88,0,0,0-1.26-.19V9.76h6.77v.38a4.3,4.3,0,0,0-2.07.44,9.31,9.31,0,0,0-2.07,1.81l-.7.79-1.91,2.06,4.52,5.1.74.79.79.81c.63.63,1.09,1.06,1.37,1.29a6.67,6.67,0,0,0,1,.66,4.65,4.65,0,0,0,1.72.44v.37H67v-.37a2.74,2.74,0,0,0,1-.25.79.79,0,0,0,.43-.73A1.61,1.61,0,0,0,68,22.29l-.37-.42-4.25-4.71-1.07,1.17v1.28l0,1.33a7.45,7.45,0,0,0,.14,1.75,1.8,1.8,0,0,0,.54.92,3.65,3.65,0,0,0,1.81.72v.37H57v-.37a4.49,4.49,0,0,0,1.52-.4,1.78,1.78,0,0,0,.73-.87,3.85,3.85,0,0,0,.28-1.22c.05-.54.07-1.33.07-2.36V5.71a24.79,24.79,0,0,0-.08-2.53A2.74,2.74,0,0,0,59.15,2a1.81,1.81,0,0,0-.72-.71A3.21,3.21,0,0,0,57.22,1V.63L62.28,0Z"/><path class="cls-1" d="M75.2,10.12l5.06-.63V19.62l0,1.33a8,8,0,0,0,.14,1.74,1.87,1.87,0,0,0,.54.92,3.69,3.69,0,0,0,1.82.72v.37H75v-.37a4.49,4.49,0,0,0,1.51-.4,1.78,1.78,0,0,0,.74-.86,4,4,0,0,0,.27-1.22c0-.54.08-1.32.08-2.35V15.18a24,24,0,0,0-.09-2.53,2.79,2.79,0,0,0-.39-1.18,2,2,0,0,0-.72-.71,3.34,3.34,0,0,0-1.21-.27Zm3.66-6.94a1.54,1.54,0,0,1-1.14-.44,1.48,1.48,0,0,1-.45-1.11A1.47,1.47,0,0,1,77.73.54,1.66,1.66,0,0,1,80,.54a1.47,1.47,0,0,1,.46,1.09A1.48,1.48,0,0,1,80,2.74,1.54,1.54,0,0,1,78.86,3.18Z"/><path class="cls-1" d="M88.73,9.49A8,8,0,0,1,89,11.4v.28a7.06,7.06,0,0,1,5.19-2.19,5.75,5.75,0,0,1,3.62,1.06,3.49,3.49,0,0,1,1.35,2.95v7.44a8,8,0,0,0,.14,1.75,1.88,1.88,0,0,0,.55.92,3.6,3.6,0,0,0,1.81.72v.37H93.87v-.37a4.49,4.49,0,0,0,1.51-.4,1.85,1.85,0,0,0,.74-.87,3.69,3.69,0,0,0,.27-1.22c0-.54.08-1.32.08-2.34V15.78A22.94,22.94,0,0,0,96.34,13a3.53,3.53,0,0,0-.5-1.44,2.7,2.7,0,0,0-1.16-1A4,4,0,0,0,93,10.23a4.36,4.36,0,0,0-1.83.39,3.3,3.3,0,0,0-1.34,1.05,3.79,3.79,0,0,0-.69,1.59A18,18,0,0,0,89,16.2v3.44l0,1.3a7.45,7.45,0,0,0,.14,1.75,1.8,1.8,0,0,0,.54.92,3.69,3.69,0,0,0,1.81.72v.37H83.72v-.37a4.49,4.49,0,0,0,1.52-.4,1.71,1.71,0,0,0,.73-.86,3.92,3.92,0,0,0,.28-1.22c0-.54.08-1.32.08-2.35V15.18a24,24,0,0,0-.09-2.53,2.79,2.79,0,0,0-.39-1.18,2,2,0,0,0-.72-.71,3.34,3.34,0,0,0-1.21-.27v-.37Z"/><path class="cls-1" d="M106.86,26.19l-.32.09a2.12,2.12,0,0,0-.6-.69,1.3,1.3,0,0,0-.73-.19A1.5,1.5,0,0,0,104,26a2.22,2.22,0,0,0-.46,1.46A2.7,2.7,0,0,0,105,29.76a6.62,6.62,0,0,0,3.64.91,6.45,6.45,0,0,0,3.8-1A3.06,3.06,0,0,0,113.85,27a2.31,2.31,0,0,0-1-2,4.73,4.73,0,0,0-2.76-.69h-2.8a4.4,4.4,0,0,1-2.78-.82,2.51,2.51,0,0,1-1.09-2,2.23,2.23,0,0,1,1.16-2,9.7,9.7,0,0,1,2.18-.76,5.87,5.87,0,0,1-2.37-1.85,4.18,4.18,0,0,1-.84-2.53,4.45,4.45,0,0,1,1.32-3.16,5.58,5.58,0,0,1,4-1.74,6.13,6.13,0,0,1,3.45,1.2,6.65,6.65,0,0,1,1.49-.93,3.72,3.72,0,0,1,1.43-.27,2.41,2.41,0,0,1,1.39.37A1.35,1.35,0,0,1,117.3,11a.93.93,0,0,1-.25.67.82.82,0,0,1-.62.28,1.31,1.31,0,0,1-1-.6l-.4-.53a1.15,1.15,0,0,0-1-.42,2.13,2.13,0,0,0-1.37.65,5.57,5.57,0,0,1,1.44,3.58,4.13,4.13,0,0,1-2.05,3.64,6,6,0,0,1-2.2.9c-.24,0-1,.09-2.24.18q-2.58.15-2.58,1.44c0,.75.73,1.12,2.2,1.12h2.9a10.61,10.61,0,0,1,2.59.27,5.53,5.53,0,0,1,1.85.86,3.76,3.76,0,0,1,1.55,3.21,4.13,4.13,0,0,1-1.8,3.57,9.28,9.28,0,0,1-5.42,1.32c-2.56,0-4.37-.51-5.44-1.55a3.34,3.34,0,0,1-1-2.49,2.82,2.82,0,0,1,.76-2,2.42,2.42,0,0,1,1.84-.81,1.81,1.81,0,0,1,1.3.47,1.66,1.66,0,0,1,.5,1.25Zm-.76-11.68a5.49,5.49,0,0,0,.8,3.09,2.38,2.38,0,0,0,2,1.19,2.17,2.17,0,0,0,2-1.18,6.46,6.46,0,0,0,.7-3.29,6,6,0,0,0-.91-3.48,2,2,0,0,0-1.72-1,2.32,2.32,0,0,0-2,1.26,5.69,5.69,0,0,0-.61,1.55A7.5,7.5,0,0,0,106.1,14.51Z"/></g></g></svg>