<svg xmlns="http://www.w3.org/2000/svg" viewBox="0 0 86.22 25.21"><defs><style>.cls-1{fill:#5d5d5d;}</style></defs><title>tit_guide</title><g id="レイヤー_2" data-name="レイヤー 2"><g id="レイヤー_1-2" data-name="レイヤー 1"><path class="cls-1" d="M21.18.62l.21,7.64-.4,0a14.16,14.16,0,0,0-3.11-5.81A6.26,6.26,0,0,0,13.29.58a7.18,7.18,0,0,0-3.6.85A8.73,8.73,0,0,0,6.89,4.2a15.67,15.67,0,0,0-2.64,9,15.62,15.62,0,0,0,.64,4.54,11.93,11.93,0,0,0,1.84,3.77,7,7,0,0,0,5.75,3.16A5.66,5.66,0,0,0,15,24.08a5,5,0,0,0,3-4.8A3.06,3.06,0,0,0,17,16.77a4.86,4.86,0,0,0-3.1-.77v-.41H25.14V16a6.91,6.91,0,0,0-2.17.43,1.81,1.81,0,0,0-.93,1,9.28,9.28,0,0,0-.33,3.08c0,.42,0,1.07.07,2l0,.41a3.36,3.36,0,0,0-1-.25,1.88,1.88,0,0,0-1,.41,11.72,11.72,0,0,1-3.56,1.61,15.62,15.62,0,0,1-4.27.57,14.05,14.05,0,0,1-5.58-1.06,9.92,9.92,0,0,1-4-3A10.72,10.72,0,0,1,.62,17.61,14.89,14.89,0,0,1,0,13.29,15.24,15.24,0,0,1,1.12,7.44,11.8,11.8,0,0,1,4.29,3,12.19,12.19,0,0,1,8.14.77,13.79,13.79,0,0,1,12.74,0a12.55,12.55,0,0,1,2.61.26,14.27,14.27,0,0,1,2.56.86l1,.48a1.8,1.8,0,0,0,.7.16c.47,0,.83-.38,1.07-1.14Z"/><path class="cls-1" d="M38.5,24.93a10.08,10.08,0,0,1-.23-2.2,7.15,7.15,0,0,1-5.21,2.2,5.45,5.45,0,0,1-3.53-1.08,3.6,3.6,0,0,1-1.3-3V14.76l0-1.33a7.3,7.3,0,0,0-.14-1.74,1.88,1.88,0,0,0-.53-.93,3.6,3.6,0,0,0-1.82-.71V9.67h5.16v8.91A20.73,20.73,0,0,0,31,21.37a3.74,3.74,0,0,0,.48,1.48,2.61,2.61,0,0,0,1.1.94,3.7,3.7,0,0,0,1.62.34,4.43,4.43,0,0,0,1.84-.38,3.42,3.42,0,0,0,1.35-1.05,3.79,3.79,0,0,0,.67-1.58,18.21,18.21,0,0,0,.17-2.95V14.72l0-1.29a8,8,0,0,0-.13-1.74,1.83,1.83,0,0,0-.54-.93,3.52,3.52,0,0,0-1.82-.71V9.67H40.9V19.2a23.32,23.32,0,0,0,.1,2.54,3,3,0,0,0,.38,1.18,1.92,1.92,0,0,0,.74.71,3.12,3.12,0,0,0,1.21.28v.37Z"/><path class="cls-1" d="M44.46,10l5.06-.64V19.53l0,1.33a7.41,7.41,0,0,0,.14,1.74,1.76,1.76,0,0,0,.54.92,3.55,3.55,0,0,0,1.81.72v.37H44.26v-.37a4.46,4.46,0,0,0,1.51-.39,1.8,1.8,0,0,0,.74-.87,3.69,3.69,0,0,0,.27-1.21c.06-.55.08-1.33.08-2.36V15.09c0-1.2,0-2-.08-2.52a2.69,2.69,0,0,0-.39-1.18,1.81,1.81,0,0,0-.72-.71,3,3,0,0,0-1.21-.27Zm3.66-6.95A1.54,1.54,0,0,1,47,2.65a1.47,1.47,0,0,1-.45-1.1A1.46,1.46,0,0,1,47,.45,1.54,1.54,0,0,1,48.12,0a1.55,1.55,0,0,1,1.13.45,1.46,1.46,0,0,1,.46,1.1,1.47,1.47,0,0,1-.45,1.1A1.54,1.54,0,0,1,48.12,3.09Z"/><path class="cls-1" d="M65.74,25.21a10.16,10.16,0,0,1-.17-1.87,10.52,10.52,0,0,1-2.45,1.22,8.24,8.24,0,0,1-2.47.37,6.86,6.86,0,0,1-4.56-1.6,6.67,6.67,0,0,1-1.86-2.56,8.47,8.47,0,0,1-.65-3.37,8.92,8.92,0,0,1,.7-3.57,7.33,7.33,0,0,1,2-2.74A7.16,7.16,0,0,1,61,9.4a6,6,0,0,1,2.28.39A9.45,9.45,0,0,1,65.5,11.2V4.7A4.66,4.66,0,0,0,64.86,2a2.49,2.49,0,0,0-2.11-.84V.69L68.15,0V20.34a4.83,4.83,0,0,0,.63,2.83,2.47,2.47,0,0,0,2.1.84v.44ZM65.5,17a23.6,23.6,0,0,0-.21-3.67,4.74,4.74,0,0,0-.76-2,3.36,3.36,0,0,0-1.27-1.08,3.54,3.54,0,0,0-1.63-.4,4,4,0,0,0-3.24,1.76,7.93,7.93,0,0,0-1.29,2.51,9.81,9.81,0,0,0-.46,3,10.29,10.29,0,0,0,.43,3,8.72,8.72,0,0,0,1.19,2.49,3.91,3.91,0,0,0,3.23,1.79,3.48,3.48,0,0,0,1.73-.46,3.65,3.65,0,0,0,1.33-1.26,5.79,5.79,0,0,0,.74-2.09A22.85,22.85,0,0,0,65.5,17Z"/><path class="cls-1" d="M75.57,15.05c0,.57-.07,1-.07,1.24a10.4,10.4,0,0,0,.44,3,7.38,7.38,0,0,0,1.22,2.43,5.69,5.69,0,0,0,4.4,2.11,5.17,5.17,0,0,0,1.8-.32,3.89,3.89,0,0,0,1.41-.88,4.86,4.86,0,0,0,1.08-2l.37.13a4.89,4.89,0,0,1-2,3.1,6.84,6.84,0,0,1-4,1.05,9.07,9.07,0,0,1-3.71-.69,6.65,6.65,0,0,1-2.62-2.11,7.92,7.92,0,0,1-1.49-4.89A7.48,7.48,0,0,1,75.27,11,7.34,7.34,0,0,1,80,9.4a6.52,6.52,0,0,1,2.6.51,5.29,5.29,0,0,1,2,1.45,5.43,5.43,0,0,1,1.28,3.69Zm7.66-.69a6.52,6.52,0,0,0-.65-2.71,3.72,3.72,0,0,0-1.25-1.36,3.13,3.13,0,0,0-1.68-.5A3.39,3.39,0,0,0,77,11.09a5.82,5.82,0,0,0-1.34,3.27Z"/></g></g></svg>