<svg xmlns="http://www.w3.org/2000/svg" viewBox="0 0 106.82 31.41"><defs><style>.cls-1{fill:#5d5d5d;}</style></defs><title>tit_pick_up</title><g id="レイヤー_2" data-name="レイヤー 2"><g id="レイヤー_1-2" data-name="レイヤー 1"><path class="cls-1" d="M7.54,12.87v6.31a13.18,13.18,0,0,0,.2,2.66,3,3,0,0,0,.75,1.43,3,3,0,0,0,1.1.73,5.25,5.25,0,0,0,1.64.29v.41H0v-.41A5.25,5.25,0,0,0,1.64,24a2.91,2.91,0,0,0,1.1-.73,2.8,2.8,0,0,0,.76-1.42,13.39,13.39,0,0,0,.19-2.67v-13a15.41,15.41,0,0,0-.13-2.33,3.65,3.65,0,0,0-.45-1.32A2.85,2.85,0,0,0,2,1.52,4.76,4.76,0,0,0,.12,1.11H0V.7H10.6A22.27,22.27,0,0,1,14.7,1a6,6,0,0,1,2.4,1.13,6,6,0,0,1,2.5,5.06,5.05,5.05,0,0,1-2.53,4.71,7.38,7.38,0,0,1-3.2.93q-.6.06-2.88.06Zm0-.57H9.26a10.82,10.82,0,0,0,2.68-.25,3.9,3.9,0,0,0,1.68-.94,5.35,5.35,0,0,0,1.73-4.17,6.68,6.68,0,0,0-.51-2.64,4.85,4.85,0,0,0-1.43-2,4.64,4.64,0,0,0-2.55-1.06c-.27,0-.88,0-1.84,0H7.54Z"/><path class="cls-1" d="M20.62,10.12l5.06-.63V19.62l0,1.33a8,8,0,0,0,.14,1.74,1.87,1.87,0,0,0,.54.92,3.69,3.69,0,0,0,1.82.72v.37H20.43v-.37a4.74,4.74,0,0,0,1.51-.4,1.78,1.78,0,0,0,.74-.86A4,4,0,0,0,23,21.85c.05-.54.08-1.32.08-2.35V15.18a24,24,0,0,0-.09-2.53,2.79,2.79,0,0,0-.39-1.18,1.85,1.85,0,0,0-.72-.7,3.12,3.12,0,0,0-1.21-.28Zm3.66-6.94a1.54,1.54,0,0,1-1.14-.44,1.48,1.48,0,0,1-.45-1.11A1.47,1.47,0,0,1,23.15.54a1.66,1.66,0,0,1,2.27,0,1.47,1.47,0,0,1,.46,1.09,1.48,1.48,0,0,1-.46,1.11A1.54,1.54,0,0,1,24.28,3.18Z"/><path class="cls-1" d="M42.29,21.37l.35.13a4.87,4.87,0,0,1-1.88,2.69,6.31,6.31,0,0,1-3.48.82,7.35,7.35,0,0,1-5.57-2.11,7.31,7.31,0,0,1-2-5.23,8.75,8.75,0,0,1,.55-3.06A7.92,7.92,0,0,1,31.78,12a7.13,7.13,0,0,1,2.63-1.88,8.8,8.8,0,0,1,3.4-.65,6.27,6.27,0,0,1,4,1.14,2,2,0,0,1,.88,1.55,1.27,1.27,0,0,1-.37.94,1.22,1.22,0,0,1-.9.38c-.76,0-1.32-.56-1.68-1.67a8,8,0,0,0-.4-1.06,1.52,1.52,0,0,0-.43-.49,2.14,2.14,0,0,0-1.33-.4,3.35,3.35,0,0,0-1.91.58,4.8,4.8,0,0,0-1.31,1.27,8.07,8.07,0,0,0-.94,1.93,10.55,10.55,0,0,0-.61,3.48,8.76,8.76,0,0,0,.56,3.06,7.38,7.38,0,0,0,1.53,2.49,4.72,4.72,0,0,0,3.54,1.58,3.8,3.8,0,0,0,2.79-1.07A5.36,5.36,0,0,0,42.29,21.37Z"/><path class="cls-1" d="M49.38,17.6l3.19-3.5a13.46,13.46,0,0,0,1.32-1.65,2,2,0,0,0,.33-1.08,1.06,1.06,0,0,0-.78-1,4.71,4.71,0,0,0-1.25-.19V9.76H59v.38a4.24,4.24,0,0,0-2.07.44,9.31,9.31,0,0,0-2.07,1.81l-.7.79L52.2,15.24l4.53,5.1.74.79.79.81c.63.63,1.09,1.06,1.37,1.29a6.19,6.19,0,0,0,1,.66,4.59,4.59,0,0,0,1.72.44v.37H54.11v-.37a2.74,2.74,0,0,0,1-.25.8.8,0,0,0,.42-.73,1.63,1.63,0,0,0-.51-1.06l-.36-.42-4.25-4.71-1.07,1.17v2.61a7.33,7.33,0,0,0,.15,1.75,1.8,1.8,0,0,0,.54.92,3.74,3.74,0,0,0,1.81.72v.37H44.12v-.37a4.67,4.67,0,0,0,1.51-.4,1.8,1.8,0,0,0,.74-.87,3.63,3.63,0,0,0,.27-1.22c.06-.54.08-1.33.08-2.36V5.71a24,24,0,0,0-.09-2.53A2.7,2.7,0,0,0,46.25,2a1.85,1.85,0,0,0-.72-.7A3.22,3.22,0,0,0,44.31,1V.63L49.38,0Z"/><path class="cls-1" d="M83.76,25a10.57,10.57,0,0,1-.23-2.19A7.11,7.11,0,0,1,78.33,25a5.47,5.47,0,0,1-3.54-1.07,3.63,3.63,0,0,1-1.3-3V13.51a8,8,0,0,0-.14-1.74,2.06,2.06,0,0,0-.53-.93,3.7,3.7,0,0,0-1.83-.7V9.76h5.17v8.91a20.84,20.84,0,0,0,.13,2.78,4.08,4.08,0,0,0,.48,1.49,2.64,2.64,0,0,0,1.11.94,3.66,3.66,0,0,0,1.61.34,4.52,4.52,0,0,0,1.84-.38,3.35,3.35,0,0,0,1.35-1.06,3.69,3.69,0,0,0,.68-1.58,18.42,18.42,0,0,0,.16-2.95V13.51a8,8,0,0,0-.14-1.74,1.82,1.82,0,0,0-.53-.93,3.61,3.61,0,0,0-1.83-.7V9.76h5.17v9.53a24.22,24.22,0,0,0,.09,2.54A3.21,3.21,0,0,0,86.64,23a1.92,1.92,0,0,0,.74.71,3,3,0,0,0,1.21.27v.37Z"/><path class="cls-1" d="M94.9,23.22l0,3.23v1.21a8,8,0,0,0,.14,1.74,2,2,0,0,0,.55.94,3.48,3.48,0,0,0,1.81.7v.37H89.65V31a4.76,4.76,0,0,0,1.51-.38,1.82,1.82,0,0,0,.74-.86,3.76,3.76,0,0,0,.27-1.23c0-.55.08-1.34.08-2.36V14.08a4.92,4.92,0,0,0-.62-2.83,2.46,2.46,0,0,0-2.1-.84V10l5.13-.72a6.81,6.81,0,0,1,.19,1.54v.34a10,10,0,0,1,2.44-1.26,7.91,7.91,0,0,1,2.48-.38,6.82,6.82,0,0,1,4.56,1.6,6.7,6.7,0,0,1,1.84,2.55,8.42,8.42,0,0,1,.65,3.38,9.15,9.15,0,0,1-.69,3.56,7,7,0,0,1-2,2.73A7.11,7.11,0,0,1,99.4,25a6.25,6.25,0,0,1-2.28-.38A9.66,9.66,0,0,1,94.9,23.22Zm0-5.84A23.54,23.54,0,0,0,95.11,21a4.82,4.82,0,0,0,.76,2,3.55,3.55,0,0,0,1.28,1.07,3.59,3.59,0,0,0,1.62.4A4,4,0,0,0,102,22.75a7.91,7.91,0,0,0,1.3-2.5,10,10,0,0,0,.45-3,10.29,10.29,0,0,0-.43-3,7.89,7.89,0,0,0-1.19-2.49A3.9,3.9,0,0,0,98.93,10a3.5,3.5,0,0,0-1.75.46,3.42,3.42,0,0,0-1.31,1.25,5.54,5.54,0,0,0-.76,2.1A23.11,23.11,0,0,0,94.9,17.38Z"/></g></g></svg>