<svg xmlns="http://www.w3.org/2000/svg" viewBox="0 0 124.82 31.04"><defs><style>.cls-1{fill:#5d5d5d;}</style></defs><title>tit_category</title><g id="レイヤー_2" data-name="レイヤー 2"><g id="レイヤー_1-2" data-name="レイヤー 1"><path class="cls-1" d="M20.79.49,21,8.35H20.6l-.3-.77c-.41-1.13-.74-2-1-2.52a8.9,8.9,0,0,0-2-2.7,6.29,6.29,0,0,0-2-1.36A6.43,6.43,0,0,0,12.9.58a6.68,6.68,0,0,0-3.44.86A8.62,8.62,0,0,0,7.07,3.61,12.37,12.37,0,0,0,5.26,6.84a15.71,15.71,0,0,0-1,5.8,16.63,16.63,0,0,0,.69,5,9.93,9.93,0,0,0,2,3.71,8.15,8.15,0,0,0,6.44,2.78,9,9,0,0,0,3.6-.69,5.77,5.77,0,0,0,2.48-2,10.18,10.18,0,0,0,1.48-3.94l.4.07A9.41,9.41,0,0,1,19.83,22a7.13,7.13,0,0,1-3.1,2.39,11.84,11.84,0,0,1-4.58.83,14.87,14.87,0,0,1-4.64-.72A10.18,10.18,0,0,1,2,20.29a12.85,12.85,0,0,1-2-7.23A15,15,0,0,1,1.16,7.13,11,11,0,0,1,4.39,2.76a12.76,12.76,0,0,1,3.83-2A13.86,13.86,0,0,1,12.67,0a13.92,13.92,0,0,1,4.5.81l1.45.47a2,2,0,0,0,.73.16.84.84,0,0,0,.72-.37,2.48,2.48,0,0,0,.3-.58Z"/><path class="cls-1" d="M37.93,22.9l.3.18a2.73,2.73,0,0,1-2.9,1.85,3.42,3.42,0,0,1-2.08-.62,4.75,4.75,0,0,1-1.12-1.41,11.19,11.19,0,0,1-1.78,1.39,5.42,5.42,0,0,1-2.66.64A4.65,4.65,0,0,1,24.62,24a3.06,3.06,0,0,1-1.14-2.51A3.37,3.37,0,0,1,24.42,19a3.85,3.85,0,0,1,1.21-.87,11.16,11.16,0,0,1,2-.66c1-.26,1.77-.48,2.25-.65a4.72,4.72,0,0,0,1.23-.64,2.08,2.08,0,0,0,.77-.94,4.4,4.4,0,0,0,.21-1.52,4.75,4.75,0,0,0-.77-3,2.58,2.58,0,0,0-.91-.71,2.72,2.72,0,0,0-1.15-.26,2.24,2.24,0,0,0-1.28.37,2.3,2.3,0,0,0-.85,1l-.44,1a1.26,1.26,0,0,1-1.26.83,1.39,1.39,0,0,1-1-.4,1.32,1.32,0,0,1-.41-1c0-.6.42-1.1,1.27-1.52A7.49,7.49,0,0,1,27,9.61a9.22,9.22,0,0,1,4.25.08,7.26,7.26,0,0,1,2,.72,2.76,2.76,0,0,1,1.43,1.68,8.11,8.11,0,0,1,.14,1.78v6.5a12.06,12.06,0,0,0,.14,2.25,1.4,1.4,0,0,0,1.44,1.25,1.58,1.58,0,0,0,.85-.19A3,3,0,0,0,37.93,22.9ZM32.12,16A12.05,12.05,0,0,1,30,17.37a18.77,18.77,0,0,0-1.77,1,4.76,4.76,0,0,0-.89.85,3.66,3.66,0,0,0-.83,2.37,2.93,2.93,0,0,0,.64,1.92,2,2,0,0,0,1.62.75,2.78,2.78,0,0,0,1.62-.53,3.34,3.34,0,0,0,1.15-1.44,8.41,8.41,0,0,0,.55-3.41Z"/><path class="cls-1" d="M42.8,9.67h4.47v.67H42.8V20.57a4.25,4.25,0,0,0,.63,2.63,2.32,2.32,0,0,0,.88.69,2.85,2.85,0,0,0,1.17.24,2.44,2.44,0,0,0,1.32-.32A4.52,4.52,0,0,0,48,22.62l.27.23a3.69,3.69,0,0,1-1.63,1.57,6,6,0,0,1-2.61.51,4.6,4.6,0,0,1-3-.81,1.93,1.93,0,0,1-.67-1A9.22,9.22,0,0,1,40.13,21V10.34H38.25v-.29a4.88,4.88,0,0,0,2.11-1.42,7,7,0,0,0,.94-1.29A9.46,9.46,0,0,0,42,5.68l.18-.58h.65Z"/><path class="cls-1" d="M51.31,15.05c-.05.57-.07,1-.07,1.24a10.08,10.08,0,0,0,.45,3,7.18,7.18,0,0,0,1.21,2.43,5.69,5.69,0,0,0,4.4,2.11,5.17,5.17,0,0,0,1.8-.32,3.89,3.89,0,0,0,1.41-.88,4.86,4.86,0,0,0,1.08-2l.37.13a4.89,4.89,0,0,1-2,3.1,6.84,6.84,0,0,1-4,1.05,9.1,9.1,0,0,1-3.71-.69,6.56,6.56,0,0,1-2.61-2.11,7.86,7.86,0,0,1-1.5-4.89A7.48,7.48,0,0,1,51,11a7.35,7.35,0,0,1,4.7-1.64,6.59,6.59,0,0,1,2.6.51,5.33,5.33,0,0,1,2,1.45,5.43,5.43,0,0,1,1.28,3.69ZM59,14.36a6.69,6.69,0,0,0-.64-2.71,3.84,3.84,0,0,0-1.26-1.36,3.13,3.13,0,0,0-1.68-.5,3.4,3.4,0,0,0-2.64,1.3,5.81,5.81,0,0,0-1.33,3.27Z"/><path class="cls-1" d="M68.2,26.1l-.31.09a2,2,0,0,0-.6-.68,1.34,1.34,0,0,0-.74-.2,1.48,1.48,0,0,0-1.2.57,2.2,2.2,0,0,0-.47,1.45,2.73,2.73,0,0,0,1.42,2.34,7.68,7.68,0,0,0,7.45-.09A3.08,3.08,0,0,0,75.2,27a2.31,2.31,0,0,0-1-2,4.69,4.69,0,0,0-2.76-.69H68.68a4.44,4.44,0,0,1-2.78-.81,2.5,2.5,0,0,1-1.09-2,2.24,2.24,0,0,1,1.16-2,9.81,9.81,0,0,1,2.18-.75,5.9,5.9,0,0,1-2.37-1.86,4.13,4.13,0,0,1-.85-2.53,4.47,4.47,0,0,1,1.32-3.16,5.6,5.6,0,0,1,1.83-1.28,5.53,5.53,0,0,1,2.17-.46,6.1,6.1,0,0,1,3.44,1.2,6.79,6.79,0,0,1,1.49-.92,3.77,3.77,0,0,1,1.44-.28A2.43,2.43,0,0,1,78,9.77a1.36,1.36,0,0,1,.63,1.13,1,1,0,0,1-.24.68.83.83,0,0,1-.62.27,1.29,1.29,0,0,1-1-.6l-.41-.53a1.12,1.12,0,0,0-.94-.42A2.11,2.11,0,0,0,74,11a5.58,5.58,0,0,1,1.43,3.59,4.15,4.15,0,0,1-2,3.64,6.16,6.16,0,0,1-2.21.89c-.23,0-1,.1-2.23.18-1.73.1-2.59.58-2.59,1.44s.74,1.12,2.2,1.12H71.5a10.62,10.62,0,0,1,2.59.28,5.32,5.32,0,0,1,1.85.85,3.76,3.76,0,0,1,1.54,3.22,4.11,4.11,0,0,1-1.79,3.56A9.28,9.28,0,0,1,70.27,31q-3.84,0-5.44-1.54a3.36,3.36,0,0,1-1-2.5,2.86,2.86,0,0,1,.75-2,2.44,2.44,0,0,1,1.85-.81,1.81,1.81,0,0,1,1.29.47,1.62,1.62,0,0,1,.5,1.25Zm-.75-11.68a5.47,5.47,0,0,0,.79,3.09,2.39,2.39,0,0,0,2.05,1.19,2.17,2.17,0,0,0,2-1.18,6.46,6.46,0,0,0,.7-3.29A5.9,5.9,0,0,0,72,10.76a2,2,0,0,0-1.72-1,2.31,2.31,0,0,0-2,1.26,5.83,5.83,0,0,0-.62,1.55A7.55,7.55,0,0,0,67.45,14.42Z"/><path class="cls-1" d="M79.22,17.19a7.22,7.22,0,0,1,2.11-5.08,8.29,8.29,0,0,1,12.26,0,7.23,7.23,0,0,1,.1,10.11,8.52,8.52,0,0,1-12.46,0,7.6,7.6,0,0,1-1.49-2.36A7.21,7.21,0,0,1,79.22,17.19Zm3.2-.2a9.39,9.39,0,0,0,1.37,5.18,4.49,4.49,0,0,0,3.78,2.37A3.62,3.62,0,0,0,89.42,24,4.91,4.91,0,0,0,91,22.54a8.44,8.44,0,0,0,1.1-2.47,10.2,10.2,0,0,0,.43-2.87,9.9,9.9,0,0,0-.45-2.91,8.67,8.67,0,0,0-1.21-2.52,4.24,4.24,0,0,0-3.53-2,4.15,4.15,0,0,0-3.43,2.09A8.72,8.72,0,0,0,82.42,17Z"/><path class="cls-1" d="M102.29,12.11a5.09,5.09,0,0,1,1.42-1.67,5.6,5.6,0,0,1,3.32-1,2.6,2.6,0,0,1,1.74.51,1.41,1.41,0,0,1,.55,1.13,1.07,1.07,0,0,1-.33.81,1.12,1.12,0,0,1-.83.31,1.34,1.34,0,0,1-1-.49l-.54-.6a2.08,2.08,0,0,0-1.53-.68c-.8,0-1.42.51-1.87,1.54a11.27,11.27,0,0,0-.66,4.3v4.62a8,8,0,0,0,.14,1.75,1.88,1.88,0,0,0,.55.92,3.55,3.55,0,0,0,1.81.72v.37H97.26v-.37a4.46,4.46,0,0,0,1.51-.39,1.8,1.8,0,0,0,.74-.87,3.69,3.69,0,0,0,.27-1.21c0-.55.08-1.33.08-2.36V15.09a23.63,23.63,0,0,0-.09-2.52,2.69,2.69,0,0,0-.38-1.18,1.81,1.81,0,0,0-.72-.71,3.06,3.06,0,0,0-1.22-.27V10L102,9.4A15,15,0,0,1,102.29,12.11Z"/><path class="cls-1" d="M109.25,9.67h6.82v.38a3.15,3.15,0,0,0-1,.29,1.25,1.25,0,0,0-.68,1.19,8.25,8.25,0,0,0,.71,2.51L118,21.57l2.57-6.34a10.87,10.87,0,0,0,1-3.35,1.79,1.79,0,0,0-.44-1.26,2,2,0,0,0-1.29-.57V9.67h5v.38a4.86,4.86,0,0,0-1.11.44,2.68,2.68,0,0,0-.7.72,25.49,25.49,0,0,0-1.62,3.47L116.3,27.05a12.59,12.59,0,0,1-1.48,2.89,3.06,3.06,0,0,1-2.41,1.1,2.78,2.78,0,0,1-1.5-.36,1.07,1.07,0,0,1-.57-.94.9.9,0,0,1,.33-.73,1.36,1.36,0,0,1,.88-.27,2.73,2.73,0,0,1,1,.25l.74.28a1.62,1.62,0,0,0,.4.05c.72,0,1.31-.55,1.77-1.64l.54-1.34A3.64,3.64,0,0,0,116.4,25a7.24,7.24,0,0,0-.66-2.26L112.09,14l-.52-1.26c-.32-.75-.56-1.28-.74-1.6a2.36,2.36,0,0,0-.53-.68,2.13,2.13,0,0,0-1-.41Z"/></g></g></svg>