<svg xmlns="http://www.w3.org/2000/svg" viewBox="0 0 75.96 24.31"><defs><style>.cls-1{fill:#5d5d5d;}</style></defs><title>tit_news</title><g id="レイヤー_2" data-name="レイヤー 2"><g id="レイヤー_1-2" data-name="レイヤー 1"><path class="cls-1" d="M4.41,3.18V18.47a13.27,13.27,0,0,0,.2,2.68,3,3,0,0,0,.75,1.42,2.92,2.92,0,0,0,1.12.74,5.93,5.93,0,0,0,1.62.28V24H0v-.4a6,6,0,0,0,1.63-.28,3,3,0,0,0,1.11-.74,2.94,2.94,0,0,0,.75-1.43,13.22,13.22,0,0,0,.2-2.67V5.5a13,13,0,0,0-.2-2.64,3,3,0,0,0-.75-1.44A2.69,2.69,0,0,0,1.64.69,5.56,5.56,0,0,0,0,.4V0H6.77L21,18.21V5.52a13.09,13.09,0,0,0-.2-2.67,3,3,0,0,0-.75-1.43A2.94,2.94,0,0,0,19,.69,5.61,5.61,0,0,0,17.35.4V0h8.1V.4a3.64,3.64,0,0,0-2.74,1A3.11,3.11,0,0,0,22,2.86a13,13,0,0,0-.2,2.64V24H21Z"/><path class="cls-1" d="M30.53,14.43c0,.58-.07,1-.07,1.25a10.08,10.08,0,0,0,.45,3,7.14,7.14,0,0,0,1.22,2.42,5.39,5.39,0,0,0,1.95,1.55,5.48,5.48,0,0,0,2.44.56,5.16,5.16,0,0,0,1.8-.31A3.85,3.85,0,0,0,39.73,22a5.05,5.05,0,0,0,1.09-2l.37.12a4.91,4.91,0,0,1-2,3.1,6.88,6.88,0,0,1-4,1,9.07,9.07,0,0,1-3.71-.69,6.56,6.56,0,0,1-2.62-2.1,7.9,7.9,0,0,1-1.5-4.89,7.51,7.51,0,0,1,2.83-6.21,7.36,7.36,0,0,1,4.7-1.63,6.73,6.73,0,0,1,2.6.5,5.3,5.3,0,0,1,3.3,5.14Zm7.67-.68A6.59,6.59,0,0,0,37.55,11a3.68,3.68,0,0,0-1.26-1.36,3,3,0,0,0-1.68-.5A3.38,3.38,0,0,0,32,10.48a5.7,5.7,0,0,0-1.34,3.27Z"/><path class="cls-1" d="M42.24,9.05h6.84v.39c-1.31.07-2,.58-2,1.53a12.56,12.56,0,0,0,.7,2.91l2.13,6.55,3-7.92A4.47,4.47,0,0,0,53.29,11c0-1-.61-1.54-1.83-1.6V9.05h6.73v.39A2.82,2.82,0,0,0,57,9.81,1.3,1.3,0,0,0,56.42,11a6.57,6.57,0,0,0,.33,1.73l2.31,7.73,2.73-6.95a6.27,6.27,0,0,0,.52-2.06A1.72,1.72,0,0,0,61.65,10a3.24,3.24,0,0,0-1.2-.53V9.05h5.17v.39a2,2,0,0,0-1.35.49,2.8,2.8,0,0,0-.73.91,14.75,14.75,0,0,0-.82,1.81l-.37.9L58.17,24h-.62L53.71,12.25,49.08,24h-.6L45,13.35l-.43-1.28a4.59,4.59,0,0,0-1.19-2.19,2.64,2.64,0,0,0-1.11-.44Z"/><path class="cls-1" d="M66.34,24V19h.28a9.89,9.89,0,0,0,1.23,2.92,3.83,3.83,0,0,0,3.15,2,3,3,0,0,0,1.92-.66,2.61,2.61,0,0,0,.87-2.1,3.1,3.1,0,0,0-.63-1.93,4.32,4.32,0,0,0-.88-.81c-.36-.24-1-.59-1.8-1a12.16,12.16,0,0,1-3-2,3.71,3.71,0,0,1-1-2.61,3.85,3.85,0,0,1,1.06-2.72,4.58,4.58,0,0,1,4.88-1l.6.26a1.42,1.42,0,0,0,.49.1c.22,0,.44-.17.63-.52h.36l.19,4h-.37a9.11,9.11,0,0,0-.41-1.36,4.34,4.34,0,0,0-.62-1,4.22,4.22,0,0,0-1.27-1,3,3,0,0,0-1.42-.37,2.22,2.22,0,0,0-1.67.71,2.41,2.41,0,0,0-.69,1.75,2.28,2.28,0,0,0,.62,1.55,5.71,5.71,0,0,0,1.92,1.28l1.86.84a6.11,6.11,0,0,1,2.49,1.88A4.39,4.39,0,0,1,76,19.85a4.14,4.14,0,0,1-1.2,3,4.69,4.69,0,0,1-3.52,1.41,6.46,6.46,0,0,1-2.35-.46L68,23.51a1.58,1.58,0,0,0-.41,0,1,1,0,0,0-.93.52Z"/></g></g></svg>