<svg xmlns="http://www.w3.org/2000/svg" width="40" height="40" viewBox="0 0 40 40">
  <g id="rank_ol_10" transform="translate(-766 -328)">
    <path id="パス_29" data-name="パス 29" d="M0,0H40L0,40Z" transform="translate(766 328)" fill="#ddd"/>
    <path id="パス_81" data-name="パス 81" d="M5.7,0H4.242V-9.633L1.328-8.562V-9.875L5.469-11.43H5.7ZM15.3-4.852a6.61,6.61,0,0,1-.867,3.773A3.084,3.084,0,0,1,11.724.156a3.107,3.107,0,0,1-2.7-1.207,6.274,6.274,0,0,1-.906-3.605v-1.93a6.463,6.463,0,0,1,.867-3.727,3.108,3.108,0,0,1,2.719-1.219,3.136,3.136,0,0,1,2.7,1.176A6.237,6.237,0,0,1,15.3-6.727ZM13.857-6.828A5.3,5.3,0,0,0,13.342-9.5a1.775,1.775,0,0,0-1.633-.84,1.751,1.751,0,0,0-1.617.836,5.171,5.171,0,0,0-.523,2.57v2.313A5.381,5.381,0,0,0,10.1-1.9a1.771,1.771,0,0,0,1.621.879,1.747,1.747,0,0,0,1.59-.828,5.186,5.186,0,0,0,.543-2.609Z" transform="translate(768 347)" fill="#707070"/>
  </g>
</svg>
