<svg xmlns="http://www.w3.org/2000/svg" width="16.252" height="20" viewBox="0 0 16.252 20">
  <path id="PC_category_food" d="M11.907,19.81,8.6,13.487,5.1,19.792a.353.353,0,0,1-.308.183.348.348,0,0,1-.172-.046.36.36,0,0,1-.136-.487L8.2,12.736,6.2,8.9a2.775,2.775,0,0,1-1.012.191,2.8,2.8,0,0,1-2.432-1.4l-2.7-4.7A.359.359,0,0,1,.176,2.5a.352.352,0,0,1,.483.129l2.705,4.7a2.1,2.1,0,0,0,2.676.866.352.352,0,0,1,.126-.114.348.348,0,0,1,.158-.042A2.1,2.1,0,0,0,7,5.234L4.291.537A.359.359,0,0,1,4.419.049.35.35,0,0,1,4.9.177l2.705,4.7a2.82,2.82,0,0,1-.788,3.69l1.8,3.43L10.805,8.04A2.754,2.754,0,0,1,9.779,6.517a2.96,2.96,0,0,1,.307-2.247,11.738,11.738,0,0,1,1.752-2.242A4.092,4.092,0,0,1,14.489.559a1.659,1.659,0,0,1,.841.222,1.777,1.777,0,0,1,.822,1.135c.454,1.712-.754,4.372-1.212,5.169a2.933,2.933,0,0,1-2.521,1.486,2.719,2.719,0,0,1-.994-.189L9.008,12.745l3.524,6.731a.36.36,0,0,1-.147.483A.348.348,0,0,1,12.22,20,.352.352,0,0,1,11.907,19.81Zm.511-11.953a2.227,2.227,0,0,0,1.91-1.131c.507-.881,1.5-3.27,1.14-4.625a1.071,1.071,0,0,0-.491-.7.946.946,0,0,0-.489-.129,3.585,3.585,0,0,0-2.155,1.264A11.161,11.161,0,0,0,10.7,4.629a2.242,2.242,0,0,0-.235,1.7,2.039,2.039,0,0,0,.854,1.2.354.354,0,0,1,.267.147A2.02,2.02,0,0,0,12.419,7.857ZM4.168,6.87l-2.705-4.7a.359.359,0,0,1,.127-.489.351.351,0,0,1,.483.129l2.705,4.7A.359.359,0,0,1,4.65,7a.344.344,0,0,1-.177.049A.352.352,0,0,1,4.168,6.87Zm1.414-.818-2.705-4.7A.36.36,0,0,1,3,.867.351.351,0,0,1,3.487,1l2.705,4.7a.359.359,0,0,1-.127.489.352.352,0,0,1-.483-.129Z" transform="translate(0)"/>
</svg>
