<svg xmlns="http://www.w3.org/2000/svg" width="12.06" height="19.501" viewBox="0 0 12.06 19.501">
  <g id="PC_cosmetic_B" transform="translate(-765.328 -647.259)">
    <path id="パス_115" data-name="パス 115" d="M5.533,19.164.943,17.493a.673.673,0,0,1-.4-.863L2.845,10.3,8.7,12.43,6.4,18.761A.674.674,0,0,1,5.533,19.164Z" transform="translate(765.236 647.148)" fill="none" stroke="#3c3c3c" stroke-miterlimit="10" stroke-width="0.75"/>
    <path id="パス_116" data-name="パス 116" d="M9.054,9.2,4.65,7.6,6.516,2.473a1.24,1.24,0,0,1,.727-.737L10.31.572A1.072,1.072,0,0,1,11.7,1.941Z" transform="translate(765.236 647.148)" fill="none" stroke="#3c3c3c" stroke-miterlimit="10" stroke-width="0.75"/>
    <rect id="長方形_274" data-name="長方形 274" width="3.155" height="7.983" rx="0.674" transform="translate(767.258 657.146) rotate(-70.001)" fill="none" stroke="#3c3c3c" stroke-miterlimit="10" stroke-width="0.75"/>
  </g>
</svg>
