<svg xmlns="http://www.w3.org/2000/svg" width="16" height="20" viewBox="0 0 16 20">
  <path id="PC_category_general" d="M3.207,20a.366.366,0,0,1-.25-.1L.114,17.259A.354.354,0,0,1,0,17V6.884a.994.994,0,0,1,1.018-.965H4.232V3.693a3.769,3.769,0,0,1,7.536,0V5.919h3.214A.993.993,0,0,1,16,6.884V17a.354.354,0,0,1-.113.26L13.044,19.9a.366.366,0,0,1-.25.1ZM.727,6.884v9.961l2.624,2.44h9.3l2.623-2.44V6.884a.273.273,0,0,0-.291-.251H11.768V9.391a.364.364,0,0,1-.727,0V6.634H4.959V9.391a.364.364,0,0,1-.727,0V6.634H1.018A.273.273,0,0,0,.727,6.884Zm10.314-.965V3.693a3.041,3.041,0,0,0-6.081,0V5.919Z"/>
</svg>
