<svg id="PC_cosmetic_A" xmlns="http://www.w3.org/2000/svg" xmlns:xlink="http://www.w3.org/1999/xlink" width="20" height="19.427" viewBox="0 0 20 19.427">
  <defs>
    <clipPath id="clip-path">
      <rect id="長方形_275" data-name="長方形 275" width="20" height="19.427" fill="#3c3c3c"/>
    </clipPath>
  </defs>
  <g id="グループ_493" data-name="グループ 493" clip-path="url(#clip-path)">
    <path id="パス_117" data-name="パス 117" d="M5.766,0a.361.361,0,0,0-.352.282C4.446,4.6,3.721,5.5.246,6.68a.361.361,0,0,0,0,.684c3.476,1.183,4.2,2.08,5.168,6.4a.375.375,0,0,0,.7,0c.968-4.317,1.692-5.213,5.168-6.4a.361.361,0,0,0,0-.684C7.81,5.5,7.086,4.6,6.119.283A.361.361,0,0,0,5.766,0M1.421,7.022C3.991,6.017,4.947,4.909,5.766,1.885c.819,3.025,1.775,4.132,4.346,5.137C7.541,8.027,6.585,9.135,5.766,12.16,4.947,9.135,3.991,8.027,1.421,7.022" transform="translate(0 5.418)" fill="#3c3c3c"/>
    <path id="パス_118" data-name="パス 118" d="M15.424,7.7h0a.361.361,0,0,0-.353.282c-.816,3.643-1.427,4.4-4.357,5.4a.362.362,0,0,0,0,.684c2.93,1,3.54,1.753,4.357,5.4a.375.375,0,0,0,.7,0c.817-3.643,1.427-4.4,4.357-5.4a.361.361,0,0,0,0-.684c-2.929-1-3.539-1.753-4.357-5.4a.361.361,0,0,0-.352-.282m-3.545,6.021c2.057-.828,2.868-1.761,3.545-4.161.677,2.4,1.488,3.333,3.545,4.161-2.056.828-2.868,1.762-3.545,4.161-.677-2.4-1.488-3.333-3.545-4.161" transform="translate(-0.378 -7.697)" fill="#3c3c3c"/>
  </g>
</svg>
