<svg xmlns="http://www.w3.org/2000/svg" width="20" height="16" viewBox="0 0 20 16">
  <path id="PC_category_baby" d="M4.635,13.648a8.01,8.01,0,0,1-1.667-2.591,3.059,3.059,0,0,1,0-6.115,8.016,8.016,0,0,1,1.667-2.59,7.5,7.5,0,0,1,10.9,0,8.017,8.017,0,0,1,1.669,2.6,3.061,3.061,0,0,1,0,6.1,8.013,8.013,0,0,1-1.67,2.6,7.5,7.5,0,0,1-10.9,0ZM3.1,8a7.158,7.158,0,0,0,6.985,7.3A7.158,7.158,0,0,0,17.072,8,7.158,7.158,0,0,0,10.087.7,7.158,7.158,0,0,0,3.1,8ZM.714,8a2.352,2.352,0,0,0,2.007,2.341,8.39,8.39,0,0,1,0-4.683A2.353,2.353,0,0,0,.714,8ZM17.786,8a8.323,8.323,0,0,1-.324,2.308,2.373,2.373,0,0,0,0-4.617A8.322,8.322,0,0,1,17.786,8Zm-6.363,2.789a1.008,1.008,0,1,1,1.008,1.021A1.014,1.014,0,0,1,11.423,10.789Zm-4.692,0A1.008,1.008,0,1,1,7.738,11.81,1.014,1.014,0,0,1,6.731,10.789Zm4.19-7.139a.357.357,0,0,1,.714,0A3.919,3.919,0,0,0,15.517,7.6a.348.348,0,1,1,0,.7A4.625,4.625,0,0,1,10.921,3.65Zm-4.266,0a.357.357,0,0,1,.714,0A3.919,3.919,0,0,0,11.251,7.6a.348.348,0,1,1,0,.7A4.625,4.625,0,0,1,6.655,3.65Z"/>
</svg>
