<svg xmlns="http://www.w3.org/2000/svg" width="20" height="20" viewBox="0 0 20 20">
  <path id="PC_category_daily" d="M12.917,20a.357.357,0,0,1-.357-.357V6.853a2.146,2.146,0,0,1,2.035-2.141V3.281a1.628,1.628,0,0,1,1.626-1.626h.118a1.628,1.628,0,0,1,1.626,1.626V4.713A2.146,2.146,0,0,1,20,6.853v12.79a.357.357,0,0,1-.357.357Zm.357-13.146V19.286h6.011V6.853a1.43,1.43,0,0,0-1.428-1.428H14.7A1.429,1.429,0,0,0,13.274,6.853Zm2.035-3.572V4.654h1.942V3.281a.913.913,0,0,0-.912-.912h-.118A.913.913,0,0,0,15.309,3.281ZM2.6,20a.357.357,0,0,1-.354-.4L3.1,12.355,2.245,5.109a.357.357,0,0,1,.354-.4H9.325a.358.358,0,0,1,.355.4l-.856,7.246L9.68,19.6a.358.358,0,0,1-.355.4Zm1.216-7.687a.363.363,0,0,1,0,.084L3,19.286H8.923L8.11,12.4a.363.363,0,0,1,0-.084l.814-6.889H3ZM4.087,2.9a.357.357,0,0,1-.357-.357V.836L.458,1.793a.365.365,0,0,1-.1.015.357.357,0,0,1-.1-.7L3.953.026A.354.354,0,0,1,4.078,0H7.823a.357.357,0,0,1,.357.357V2.543a.357.357,0,0,1-.357.357Zm.357-.714H7.466V.714H4.444Z" transform="translate(0)"/>
</svg>
