<svg xmlns="http://www.w3.org/2000/svg" width="19.794" height="19.794" viewBox="0 0 19.794 19.794">
  <path id="PC_category_supplement" d="M6.194,19.428.572,13.805a1.951,1.951,0,0,1,0-2.76L2.244,9.373l.012-.013L6.576,5.041,7.809,3.808a1.954,1.954,0,0,1,2.76,0L10.764,4l.883-.883-.48-.48a.353.353,0,0,1,0-.5L13,.309a.354.354,0,0,1,.5,0L19.691,6.5a.354.354,0,0,1,0,.5l-1.83,1.83a.353.353,0,0,1-.5,0l-.48-.48L16,9.235l.194.195a1.955,1.955,0,0,1,0,2.761L8.954,19.428a1.95,1.95,0,0,1-2.761,0ZM1.072,11.545a1.244,1.244,0,0,0,0,1.76l5.622,5.622a1.243,1.243,0,0,0,1.76,0l1.435-1.435L2.507,10.11Zm9.318,5.447,3.819-3.819L6.826,5.791,3.007,9.61Zm4.32-4.319.983-.983a1.247,1.247,0,0,0,0-1.761l-.4-.4a.356.356,0,0,1-.127-.426.356.356,0,0,1,.113-.151l1.1-1.1L12.147,3.619,11.01,4.756a.354.354,0,0,1-.541-.05l-.4-.4a1.246,1.246,0,0,0-1.76,0l-.983.983ZM11.917,2.389l5.694,5.694,1.33-1.33L13.247,1.059Zm-2.58,10.98A2.628,2.628,0,0,1,6.625,10.65a2.438,2.438,0,0,1,.818-1.991.353.353,0,0,1,.207-.067.357.357,0,0,1,.208.067,2.44,2.44,0,0,1,.819,1.992,3.192,3.192,0,0,1-.088.76,3.2,3.2,0,0,1,.76-.093h.024a2.432,2.432,0,0,1,1.973.805.353.353,0,0,1,0,.414,2.439,2.439,0,0,1-1.986.833ZM8.175,12.352a2.064,2.064,0,0,0,1.162.31h.022a2.075,2.075,0,0,0,1.179-.328,2.064,2.064,0,0,0-1.164-.311h-.02A2.068,2.068,0,0,0,8.175,12.352Zm-.843-1.7a2.07,2.07,0,0,0,.319,1.181A2.075,2.075,0,0,0,7.97,10.65a2.075,2.075,0,0,0-.319-1.181A2.07,2.07,0,0,0,7.332,10.65Z" transform="translate(0 -0.206)"/>
</svg>
