<svg xmlns="http://www.w3.org/2000/svg" width="20" height="20" viewBox="0 0 20 20">
  <path id="PC_category_all" d="M2.929,17.071A10,10,0,0,1,17.071,2.929,10,10,0,0,1,2.929,17.071ZM3.382,3.382A9.359,9.359,0,0,0,16.618,16.618,9.359,9.359,0,0,0,3.382,3.382Zm9.781,11.365a.32.32,0,0,1-.32-.32V5.572a.32.32,0,1,1,.641,0v8.534h1.87a.32.32,0,0,1,0,.641Zm-3.515,0a.32.32,0,0,1-.321-.32V5.572a.32.32,0,1,1,.641,0v8.534h1.87a.32.32,0,1,1,0,.641ZM4.58,14.658a.321.321,0,0,1-.247-.381l.449-2.121a.3.3,0,0,1,0-.041.311.311,0,0,1,.047-.167L6.171,5.588a.321.321,0,0,1,.627,0l1.345,6.362a.316.316,0,0,1,.047.167.3.3,0,0,1,0,.041l.449,2.121a.321.321,0,0,1-.248.381.392.392,0,0,1-.067.006.32.32,0,0,1-.313-.253l-.418-1.975H5.377L4.96,14.412a.32.32,0,0,1-.38.247ZM5.513,11.8H7.456L6.484,7.2Z"/>
</svg>
