<svg xmlns="http://www.w3.org/2000/svg" width="20.634" height="19.03" viewBox="0 0 20.634 19.03">
  <path id="パス_23" data-name="パス 23" d="M-1081.279-230.645a.315.315,0,0,0-.064-.268.325.325,0,0,0-.251-.119h-4.29V-233.2a5.674,5.674,0,0,0-5.7-5.632,5.674,5.674,0,0,0-5.7,5.632v2.168h-4.29a.325.325,0,0,0-.252.119.316.316,0,0,0-.064.268l1.581,7.178s0,0,0,0l.435,1.973a2.116,2.116,0,0,0,2.08,1.691h12.429a2.114,2.114,0,0,0,2.078-1.685l.436-1.979h0Zm-.717.251-1.44,6.542h-2.449v-6.542Zm-12.623,6.542v-6.542h6.061v6.542Zm-2.027-6.542h1.381v6.542h-1.381Zm8.088-.638h-6.061v-1.982a3.015,3.015,0,0,1,3.031-2.992,3.015,3.015,0,0,1,3.03,2.992Zm.646.638h1.381v6.542h-1.381Zm-8.734-2.806a5.032,5.032,0,0,1,5.058-4.994,5.032,5.032,0,0,1,5.058,4.994v2.168h-1.381v-1.982a3.657,3.657,0,0,0-3.676-3.63,3.657,3.657,0,0,0-3.677,3.63v1.982h-1.381Zm-.646,2.806v6.542h-2.449l-1.44-6.542Zm11.919,9.954H-1097.8a1.473,1.473,0,0,1-1.447-1.182l-.351-1.593h16.024l-.352,1.6A1.47,1.47,0,0,1-1085.374-220.439Z" transform="translate(1101.905 238.831)"/>
</svg>
