<svg xmlns="http://www.w3.org/2000/svg" width="24.348" height="18.286" viewBox="0 0 24.348 18.286">
  <g id="グループ_109" data-name="グループ 109" transform="translate(-6196.652 -5874.341)">
    <path id="パス_24" data-name="パス 24" d="M-737.964-341.9c-.09,0-.183.005-.279.014a9.223,9.223,0,0,0-8.609-5.895,9.223,9.223,0,0,0-8.609,5.895c-.1-.009-.189-.014-.279-.014a3.278,3.278,0,0,0-3.287,3.262,3.278,3.278,0,0,0,3.287,3.262c.091,0,.183-.005.279-.014a9.223,9.223,0,0,0,8.609,5.895,9.224,9.224,0,0,0,8.609-5.895c.1.009.188.014.279.014a3.278,3.278,0,0,0,3.287-3.262A3.278,3.278,0,0,0-737.964-341.9Zm-17.775,5.881a2.632,2.632,0,0,1-2.639-2.619,2.632,2.632,0,0,1,2.639-2.619l.062,0a9.044,9.044,0,0,0-.386,2.616,9.044,9.044,0,0,0,.386,2.616Zm8.887,5.881a8.541,8.541,0,0,1-8.563-8.5,8.541,8.541,0,0,1,8.563-8.5,8.542,8.542,0,0,1,8.564,8.5A8.542,8.542,0,0,1-746.851-330.138Zm8.888-5.881-.062,0a9.05,9.05,0,0,0,.386-2.616,9.046,9.046,0,0,0-.386-2.616l.062,0a2.632,2.632,0,0,1,2.638,2.619A2.632,2.632,0,0,1-737.964-336.019Z" transform="translate(6955.677 6222.122)"/>
    <path id="パス_25" data-name="パス 25" d="M-685.094-313.431a2.829,2.829,0,0,1-2.824-2.827.324.324,0,0,0-.324-.324.324.324,0,0,0-.324.324,3.478,3.478,0,0,0,3.472,3.476.324.324,0,0,0,.324-.324A.324.324,0,0,0-685.094-313.431Z" transform="translate(6894.846 6195.132)"/>
    <path id="パス_26" data-name="パス 26" d="M-655.285-313.431a2.829,2.829,0,0,1-2.824-2.827.324.324,0,0,0-.324-.324.324.324,0,0,0-.324.324,3.478,3.478,0,0,0,3.472,3.476.324.324,0,0,0,.324-.324A.324.324,0,0,0-655.285-313.431Z" transform="translate(6869.111 6195.132)"/>
    <path id="パス_27" data-name="パス 27" d="M-693.778-276.666a.986.986,0,0,0-.986.987.986.986,0,0,0,.986.987.986.986,0,0,0,.986-.987A.986.986,0,0,0-693.778-276.666Z" transform="translate(6900.197 6160.629)"/>
    <path id="パス_28" data-name="パス 28" d="M-658.549-276.666a.986.986,0,0,0-.986.987.986.986,0,0,0,.986.987.986.986,0,0,0,.986-.987A.986.986,0,0,0-658.549-276.666Z" transform="translate(6869.782 6160.629)"/>
  </g>
</svg>
