<svg id="グループ_107" data-name="グループ 107" xmlns="http://www.w3.org/2000/svg" width="18.778" height="19.031" viewBox="0 0 18.778 19.031">
  <path id="パス_21" data-name="パス 21" d="M-1058.329-14.638a.328.328,0,0,0-.236-.1h-2.608v-2.22h1.309a.322.322,0,0,0,.325-.318v-1.542a.322.322,0,0,0-.325-.318h-3.57a.327.327,0,0,0-.038.007.3.3,0,0,0-.038,0l-3.469.826a.318.318,0,0,0-.239.385.324.324,0,0,0,.315.243.323.323,0,0,0,.077-.009l3.068-.73v1.137a.322.322,0,0,0,.325.318h1.309v2.22h-2.608a.328.328,0,0,0-.237.1.316.316,0,0,0-.088.237l.432,6.978-.432,6.978a.316.316,0,0,0,.088.237.328.328,0,0,0,.237.1h6.169a.328.328,0,0,0,.236-.1.315.315,0,0,0,.088-.237l-.432-6.978.432-6.978A.315.315,0,0,0-1058.329-14.638Zm-4.781-3.863h2.92v.905h-2.92Zm4.2,17.757h-5.478l.412-6.66a.287.287,0,0,0,0-.038l-.412-6.66h5.478l-.412,6.66a.335.335,0,0,0,0,.038Z" transform="translate(1067.229 19.137)"/>
  <path id="パス_22" data-name="パス 22" d="M-974.638-4.1V-5.221a1.641,1.641,0,0,0-1.656-1.622,1.641,1.641,0,0,0-1.656,1.622V-4.1A1.822,1.822,0,0,0-979.7-2.3V10.19a.322.322,0,0,0,.325.318h6.169a.322.322,0,0,0,.325-.318V-2.3A1.822,1.822,0,0,0-974.638-4.1ZM-977.3-5.221a1,1,0,0,1,1.006-.985,1,1,0,0,1,1.006.985v.985H-977.3Zm3.765,15.093h-5.519V-2.3a1.185,1.185,0,0,1,1.2-1.171h3.128a1.185,1.185,0,0,1,1.2,1.171Z" transform="translate(991.663 8.523)"/>
</svg>
