<svg xmlns="http://www.w3.org/2000/svg" width="41.793" height="31.659" viewBox="0 0 41.793 31.659">
  <path id="合体_3" data-name="合体 3" d="M6.12,21.453c-.164.015-.323.024-.479.024a5.648,5.648,0,0,1,0-11.3c.155,0,.314.009.479.024a15.8,15.8,0,0,1,29.554,0c.165-.015.324-.024.478-.024a5.648,5.648,0,0,1,0,11.3c-.155,0-.315-.008-.478-.024a15.8,15.8,0,0,1-29.554,0ZM6.2,15.829A14.7,14.7,0,1,0,20.9,1.113,14.724,14.724,0,0,0,6.2,15.829ZM36.045,11.3a15.8,15.8,0,0,1,0,9.058c.035,0,.072,0,.107,0a4.534,4.534,0,0,0,0-9.068C36.117,11.3,36.08,11.3,36.045,11.3ZM1.112,15.829a4.536,4.536,0,0,0,4.529,4.534c.035,0,.072,0,.107,0a15.8,15.8,0,0,1,0-9.058c-.035,0-.073-.005-.107-.005A4.537,4.537,0,0,0,1.112,15.829Zm22.224,2.545a1.692,1.692,0,1,1,1.692,1.694A1.693,1.693,0,0,1,23.336,18.375Zm-8.263,0a1.692,1.692,0,1,1,1.692,1.694A1.693,1.693,0,0,1,15.073,18.375Zm8.446-10.5a.556.556,0,1,1,1.113,0,4.855,4.855,0,0,0,4.847,4.853.557.557,0,0,1,0,1.114A5.97,5.97,0,0,1,23.518,7.875Zm-6.992,0a.556.556,0,1,1,1.112,0,4.855,4.855,0,0,0,4.847,4.853.557.557,0,0,1,0,1.114A5.97,5.97,0,0,1,16.527,7.875Z"/>
</svg>
