<svg xmlns="http://www.w3.org/2000/svg" width="28" height="28" viewBox="0 0 28 28">
  <g id="SP_cosmetic_B" transform="translate(2901 -763)">
    <rect id="長方形_276" data-name="長方形 276" width="28" height="28" transform="translate(-2901 763)" fill="rgba(255,255,255,0)"/>
    <path id="パス_119" data-name="パス 119" d="M16.667.6a2.059,2.059,0,0,0-2.2-.463L10.054,1.812a2.319,2.319,0,0,0-1.363,1.38l-2.5,6.87-.812-.3a1.51,1.51,0,0,0-1.934.9l-.889,2.444a1.446,1.446,0,0,0,.685,1.8L.091,23.569a1.514,1.514,0,0,0,.9,1.936l6.606,2.4A1.494,1.494,0,0,0,8.113,28a1.513,1.513,0,0,0,1.421-.993l3.146-8.647a1.471,1.471,0,0,0,.269.049,1.515,1.515,0,0,0,1.418-.995l.889-2.444a1.509,1.509,0,0,0-.9-1.934l-.81-.3L17.162,2.8A2.06,2.06,0,0,0,16.667.6M8.519,26.636a.418.418,0,0,1-.223.243.425.425,0,0,1-.328.014l-6.6-2.4a.431.431,0,0,1-.258-.551l3.132-8.607,7.414,2.7Zm5.708-12.365a.429.429,0,0,1,.014.33l-.889,2.442a.428.428,0,0,1-.222.243.436.436,0,0,1-.33.013L3.826,14.033a.429.429,0,0,1-.256-.55l.889-2.445a.43.43,0,0,1,.4-.282.4.4,0,0,1,.147.026l8.975,3.267a.421.421,0,0,1,.242.222m1.92-11.844-3.618,9.943L7.205,10.431l2.5-6.868a1.241,1.241,0,0,1,.731-.741l4.414-1.674a.977.977,0,0,1,1.059.223.979.979,0,0,1,.237,1.056" transform="translate(-2896 763.001)" fill="#4d4c4d"/>
  </g>
</svg>
