<svg id="SP_category_all" xmlns="http://www.w3.org/2000/svg" width="28" height="28" viewBox="0 0 28 28">
  <path id="楕円形_28" data-name="楕円形 28" d="M13.551-.449a14,14,0,0,1,9.9,23.9,14,14,0,0,1-19.8-19.8A13.908,13.908,0,0,1,13.551-.449Zm0,27.1A13.1,13.1,0,0,0,22.816,4.286a13.1,13.1,0,1,0-18.53,18.53A13.017,13.017,0,0,0,13.551,26.654Z" transform="translate(0.449 0.449)"/>
  <g id="グループ_547" data-name="グループ 547" transform="translate(-1080.141 -967.505)">
    <path id="パス_143" data-name="パス 143" d="M1096.715,988.152h-3.067a.449.449,0,0,1-.449-.449v-12.4a.449.449,0,1,1,.9,0v11.947h2.618a.449.449,0,0,1,0,.9Z"/>
    <g id="グループ_546" data-name="グループ 546">
      <path id="パス_144" data-name="パス 144" d="M1091.793,988.037a.449.449,0,0,1-.438-.356l-2.135-10.091-2.135,10.091a.449.449,0,0,1-.878-.186l2.574-12.166a.449.449,0,0,1,.878,0l2.574,12.166a.449.449,0,0,1-.439.542Z"/>
      <path id="線_80" data-name="線 80" d="M3.88.449H0A.449.449,0,0,1-.449,0,.449.449,0,0,1,0-.449H3.88A.449.449,0,0,1,4.329,0,.449.449,0,0,1,3.88.449Z" transform="translate(1087.28 984.468)"/>
    </g>
    <path id="パス_145" data-name="パス 145" d="M1101.637,988.152h-3.067a.449.449,0,0,1-.449-.449v-12.4a.449.449,0,1,1,.9,0v11.947h2.618a.449.449,0,0,1,0,.9Z"/>
  </g>
</svg>
