<svg id="SP_category_baby" xmlns="http://www.w3.org/2000/svg" width="28" height="23" viewBox="0 0 28 23">
  <path id="楕円形_19" data-name="楕円形 19" d="M10.278-.5a10.379,10.379,0,0,1,7.633,3.38A11.827,11.827,0,0,1,21.057,11a11.827,11.827,0,0,1-3.145,8.12,10.308,10.308,0,0,1-15.266,0A11.827,11.827,0,0,1-.5,11,11.827,11.827,0,0,1,2.645,2.88,10.379,10.379,0,0,1,10.278-.5Zm0,22c5.392,0,9.778-4.71,9.778-10.5S15.67.5,10.278.5.5,5.21.5,11,4.887,21.5,10.278,21.5Z" transform="translate(3.844 0.5)"/>
  <path id="パス_112" data-name="パス 112" d="M998.162,940.987a4.4,4.4,0,0,1,0-8.793.5.5,0,0,1,0,1,3.4,3.4,0,0,0,0,6.793.5.5,0,0,1,0,1Z" transform="translate(-993.915 -925.091)"/>
  <path id="パス_113" data-name="パス 113" d="M1018.669,940.987a.5.5,0,0,1,0-1,3.4,3.4,0,0,0,0-6.793.5.5,0,0,1,0-1,4.4,4.4,0,0,1,0,8.793Z" transform="translate(-994.915 -925.091)"/>
  <path id="パス_114" data-name="パス 114" d="M1010.066,937.011a6.565,6.565,0,0,1-6.435-6.673.5.5,0,0,1,1,0,5.564,5.564,0,0,0,5.435,5.673.5.5,0,0,1,0,1Z" transform="translate(-994.314 -925.091)"/>
  <path id="パス_115" data-name="パス 115" d="M1016.207,937.011a6.565,6.565,0,0,1-6.435-6.673.5.5,0,0,1,1,0,5.564,5.564,0,0,0,5.435,5.673.5.5,0,0,1,0,1Z" transform="translate(-994.483 -925.091)"/>
  <g id="グループ_511" data-name="グループ 511" transform="translate(9.423 14.042)">
    <ellipse id="楕円形_20" data-name="楕円形 20" cx="1.411" cy="1.467" rx="1.411" ry="1.467"/>
    <ellipse id="楕円形_21" data-name="楕円形 21" cx="1.411" cy="1.467" rx="1.411" ry="1.467" transform="translate(6.569)"/>
  </g>
</svg>
