<svg id="SP_category_supplement" xmlns="http://www.w3.org/2000/svg" width="28" height="28" viewBox="0 0 28 28">
  <path id="パス_116" data-name="パス 116" d="M1048.814,950.081a2.721,2.721,0,0,1-1.938-.8l-7.894-7.895a2.741,2.741,0,0,1,0-3.876l10.163-10.163a2.744,2.744,0,0,1,3.876,0l.624.624a.5.5,0,1,1-.7.7l-.624-.624a1.75,1.75,0,0,0-2.472,0l-10.163,10.163a1.749,1.749,0,0,0,0,2.472l7.895,7.895a1.747,1.747,0,0,0,2.472,0l10.163-10.162a1.751,1.751,0,0,0,0-2.473l-.626-.628a.5.5,0,1,1,.7-.7l.625.627a2.745,2.745,0,0,1,0,3.876l-10.163,10.162A2.722,2.722,0,0,1,1048.814,950.081Z" transform="translate(-1038.179 -922.081)"/>
  <path id="長方形_281" data-name="長方形 281" d="M.5,0H16.15a.5.5,0,0,1,.5.5V9.073a.5.5,0,0,1-.5.5H.5a.5.5,0,0,1-.5-.5V.5A.5.5,0,0,1,.5,0ZM15.654.993H.993V8.577H15.654Z" transform="translate(9.585 6.644) rotate(45)"/>
  <g id="グループ_513" data-name="グループ 513" transform="translate(14.613 4.082)">
    <path id="線_64" data-name="線 64" d="M0,2.157a.5.5,0,0,1-.351-.145.5.5,0,0,1,0-.7L1.31-.355a.5.5,0,0,1,.7,0,.5.5,0,0,1,0,.7L.347,2.012A.5.5,0,0,1,0,2.157Z" transform="translate(7.148 7.147)"/>
    <path id="線_65" data-name="線 65" d="M0,2.158a.5.5,0,0,1-.351-.145.5.5,0,0,1,0-.7L1.31-.355a.5.5,0,0,1,.7,0,.5.5,0,0,1,0,.7L.347,2.012A.5.5,0,0,1,0,2.158Z" transform="translate(0.5 0.5)"/>
  </g>
  <path id="長方形_282" data-name="長方形 282" d="M.5,0H12.8a.5.5,0,0,1,.5.5V4.13a.5.5,0,0,1-.5.5H.5a.5.5,0,0,1-.5-.5V.5A.5.5,0,0,1,.5,0ZM12.3.993H.993V3.634H12.3Z" transform="translate(18.601 0) rotate(45)"/>
  <g id="グループ_514" data-name="グループ 514" transform="translate(9.302 11.98)">
    <path id="合体_5" data-name="合体 5" d="M5477.506-1970.272a3.509,3.509,0,0,1-2.719-1.07,3.518,3.518,0,0,1-1.088-2.749,3.422,3.422,0,0,1,1.148-2.8.5.5,0,0,1,.292-.095.492.492,0,0,1,.291.095,3.416,3.416,0,0,1,1.151,2.8,4.477,4.477,0,0,1-.123,1.067,4.48,4.48,0,0,1,1.065-.13h.036a3.421,3.421,0,0,1,2.77,1.13.5.5,0,0,1,0,.582,3.43,3.43,0,0,1-2.79,1.17Zm-1.631-1.429a2.89,2.89,0,0,0,1.631.436h.03a2.909,2.909,0,0,0,1.655-.459,2.891,2.891,0,0,0-1.633-.437h-.029A2.91,2.91,0,0,0,5475.875-1971.7Zm-1.183-2.389a2.912,2.912,0,0,0,.447,1.659,2.906,2.906,0,0,0,.449-1.659,2.906,2.906,0,0,0-.449-1.659A2.912,2.912,0,0,0,5474.692-1974.09Z" transform="translate(-5473.698 1976.98)"/>
  </g>
</svg>
