<svg id="SP_category_food" xmlns="http://www.w3.org/2000/svg" width="23.002" height="28" viewBox="0 0 23.002 28">
  <path id="線_59" data-name="線 59" d="M8.334,16.245a.5.5,0,0,1-.442-.266L-.442.234A.5.5,0,0,1-.234-.442a.5.5,0,0,1,.676.208L8.776,15.511a.5.5,0,0,1-.441.734Z" transform="translate(8.961 11.755)"/>
  <path id="線_60" data-name="線 60" d="M0,16.925a.5.5,0,0,1-.244-.064.5.5,0,0,1-.192-.681L8.764-.244a.5.5,0,0,1,.681-.192.5.5,0,0,1,.192.681L.436,16.67A.5.5,0,0,1,0,16.925Z" transform="translate(6.788 11.039)"/>
  <path id="パス_109" data-name="パス 109" d="M870.964,934.821a3.976,3.976,0,0,1-3.442-1.966l-3.828-6.575a.5.5,0,1,1,.864-.5l3.829,6.575a2.986,2.986,0,0,0,4.056,1.076,2.922,2.922,0,0,0,1.383-1.79,2.893,2.893,0,0,0-.3-2.22l-3.829-6.575a.5.5,0,1,1,.864-.5l3.829,6.575a3.921,3.921,0,0,1-1.452,5.381A3.966,3.966,0,0,1,870.964,934.821Z" transform="translate(-863.626 -922.091)"/>
  <path id="線_61" data-name="線 61" d="M3.829,7.075A.5.5,0,0,1,3.4,6.826L-.432.252a.5.5,0,0,1,.18-.684.5.5,0,0,1,.684.18L4.261,6.323a.5.5,0,0,1-.432.752Z" transform="translate(2.502 2.791)"/>
  <path id="線_62" data-name="線 62" d="M3.829,7.075A.5.5,0,0,1,3.4,6.826L-.432.252a.5.5,0,0,1,.18-.684.5.5,0,0,1,.684.18L4.261,6.323a.5.5,0,0,1-.432.752Z" transform="translate(4.504 1.645)"/>
  <path id="パス_110" data-name="パス 110" d="M881.9,934.119a3.855,3.855,0,0,1-3.737-2.875,4.1,4.1,0,0,1,.434-3.146,16.485,16.485,0,0,1,2.48-3.138c1.385-1.365,2.648-2.058,3.753-2.058a2.363,2.363,0,0,1,1.189.312,2.485,2.485,0,0,1,1.164,1.589c.642,2.4-1.067,6.121-1.716,7.236A4.158,4.158,0,0,1,881.9,934.119Zm2.93-10.218a5.092,5.092,0,0,0-3.051,1.77,15.651,15.651,0,0,0-2.318,2.929,3.109,3.109,0,0,0-.332,2.384,2.856,2.856,0,0,0,2.771,2.134,3.155,3.155,0,0,0,2.7-1.584c.718-1.234,2.122-4.578,1.614-6.474a1.5,1.5,0,0,0-.695-.98A1.357,1.357,0,0,0,884.831,923.9Z" transform="translate(-864.324 -922.119)"/>
</svg>
