<svg xmlns="http://www.w3.org/2000/svg" xmlns:xlink="http://www.w3.org/1999/xlink" width="28" height="28" viewBox="0 0 28 28">
  <defs>
    <clipPath id="clip-path">
      <rect id="長方形_275" data-name="長方形 275" width="28" height="27.198" fill="#4d4c4d"/>
    </clipPath>
  </defs>
  <g id="SP_cosmetic_A" transform="translate(4465 -1154)">
    <rect id="長方形_276" data-name="長方形 276" width="28" height="28" transform="translate(-4465 1154)" fill="rgba(255,255,255,0)"/>
    <g id="グループ_493" data-name="グループ 493" transform="translate(-4465 1154.5)" clip-path="url(#clip-path)">
      <path id="パス_117" data-name="パス 117" d="M8.072,0A.505.505,0,0,0,7.58.4C6.225,6.44,5.21,7.7.344,9.352a.505.505,0,0,0,0,.958c4.866,1.656,5.881,2.912,7.235,8.956a.524.524,0,0,0,.986,0c1.355-6.044,2.368-7.3,7.235-8.956a.505.505,0,0,0,0-.958C10.934,7.695,9.921,6.44,8.566.4A.506.506,0,0,0,8.072,0M1.989,9.831c3.6-1.407,4.936-2.958,6.083-7.192,1.147,4.234,2.486,5.785,6.084,7.192-3.6,1.407-4.937,2.958-6.084,7.192-1.147-4.234-2.484-5.785-6.083-7.192" transform="translate(0 7.585)" fill="#4d4c4d"/>
      <path id="パス_118" data-name="パス 118" d="M17.406,7.7h0a.506.506,0,0,0-.494.4c-1.143,5.1-2,6.16-6.1,7.555a.506.506,0,0,0,0,.958c4.1,1.4,4.956,2.455,6.1,7.555a.524.524,0,0,0,.986,0c1.144-5.1,2-6.16,6.1-7.555a.505.505,0,0,0,0-.958c-4.1-1.4-4.955-2.455-6.1-7.555a.505.505,0,0,0-.493-.4m-4.963,8.43c2.88-1.159,4.016-2.465,4.963-5.825.947,3.36,2.083,4.666,4.963,5.825-2.878,1.159-4.016,2.467-4.963,5.825-.947-3.359-2.083-4.666-4.963-5.825" transform="translate(3.658 -7.697)" fill="#4d4c4d"/>
    </g>
  </g>
</svg>
