<svg xmlns="http://www.w3.org/2000/svg" width="28" height="28" viewBox="0 0 28 28">
  <g id="SP_category_daily" transform="translate(0 0)">
    <path id="パス_111" data-name="パス 111" d="M909.389,928.962h9.417a.5.5,0,0,1,.5.559l-1.2,10.144,1.2,10.144a.5.5,0,0,1-.5.559h-9.417a.5.5,0,0,1-.5-.559l1.2-10.144-1.2-10.144a.5.5,0,0,1,.5-.559Zm8.854,1h-8.291l1.139,9.644a.5.5,0,0,1,0,.117l-1.139,9.644h8.291l-1.139-9.644a.5.5,0,0,1,0-.117Z" transform="translate(-905.75 -922.367)"/>
    <path id="長方形_278" data-name="長方形 278" d="M2.5-.5H6.916a3,3,0,0,1,3,3V20.405a.5.5,0,0,1-.5.5H0a.5.5,0,0,1-.5-.5V2.5A3,3,0,0,1,2.5-.5ZM8.916,19.905V2.5a2,2,0,0,0-2-2H2.5a2,2,0,0,0-2,2V19.905Z" transform="translate(18.084 7.095)"/>
    <path id="長方形_279" data-name="長方形 279" d="M1.777-.5h.164A2.28,2.28,0,0,1,4.219,1.777V4.2a.5.5,0,0,1-.5.5H0a.5.5,0,0,1-.5-.5V1.777A2.28,2.28,0,0,1,1.777-.5ZM3.219,3.7V1.777A1.279,1.279,0,0,0,1.942.5H1.777A1.279,1.279,0,0,0,.5,1.777V3.7Z" transform="translate(20.933 2.817)"/>
    <path id="長方形_280" data-name="長方形 280" d="M0-.5H5.231a.5.5,0,0,1,.5.5V3.061a.5.5,0,0,1-.5.5H0a.5.5,0,0,1-.5-.5V0A.5.5,0,0,1,0-.5ZM4.731.5H.5V2.561H4.731Z" transform="translate(5.722 0.5)"/>
    <path id="線_63" data-name="線 63" d="M0,2.031a.5.5,0,0,1-.48-.36.5.5,0,0,1,.339-.62L5.091-.48a.5.5,0,0,1,.62.34.5.5,0,0,1-.339.62L.14,2.01A.5.5,0,0,1,0,2.031Z" transform="translate(0.5 0.5)"/>
  </g>
</svg>
