<svg xmlns="http://www.w3.org/2000/svg" width="32.233" height="32.938" viewBox="0 0 32.233 32.938">
  <path id="合体_2" data-name="合体 2" d="M21.087,32.938a.554.554,0,0,1-.558-.551V10.744a3.143,3.143,0,0,1,3.01-3.115V5.692a2.843,2.843,0,0,1,5.685,0V7.63a3.143,3.143,0,0,1,3.009,3.115V32.387a.554.554,0,0,1-.558.551Zm.558-22.194V31.836h9.473V10.744a2.042,2.042,0,0,0-2.052-2.028H23.7A2.043,2.043,0,0,0,21.645,10.744Zm3.01-5.052V7.4h3.454V5.692a1.727,1.727,0,0,0-3.454,0ZM4.281,32.938a.561.561,0,0,1-.406-.174.548.548,0,0,1-.151-.411l.741-12.078L3.724,8.2a.548.548,0,0,1,.151-.411.56.56,0,0,1,.406-.173H8.758V3.771H6.512a.554.554,0,0,1-.558-.551V1.252L.689,2.515A.559.559,0,0,1,.016,2.11a.551.551,0,0,1,.41-.666L6.38.015a.138.138,0,0,1,.038,0h.028A.549.549,0,0,1,6.512,0h6.127A.554.554,0,0,1,13.2.551V3.22a.554.554,0,0,1-.558.551H10.392V7.614H14.87a.56.56,0,0,1,.406.173.548.548,0,0,1,.151.411l-.741,12.078.741,12.078a.548.548,0,0,1-.151.411.561.561,0,0,1-.406.174Zm1.3-12.7a.58.58,0,0,1,0,.066L4.874,31.836h9.4L13.57,20.309c0-.022,0-.044,0-.066l.707-11.527h-9.4ZM7.07,2.669h5.011V1.1H7.07Z"/>
</svg>
