<svg xmlns="http://www.w3.org/2000/svg" width="28.674" height="34.601" viewBox="0 0 28.674 34.601">
  <path id="合体_1" data-name="合体 1" d="M20.509,34.548a1.5,1.5,0,0,1-.915-.706l-4.416-8.3-4.529,8.177a1.5,1.5,0,0,1-.919.714,1.522,1.522,0,0,1-.392.052,1.51,1.51,0,0,1-1.453-1.125,1.514,1.514,0,0,1,.15-1.151l5.453-9.845L9.9,15.623c-1.421.345-3.693.191-5.61-3.149L.074,5.124a.558.558,0,0,1,.2-.76.551.551,0,0,1,.755.2l4.216,7.35C6.555,14.2,8.2,15.069,9.992,14.437a.553.553,0,0,1,.67.263l9.9,18.6a.394.394,0,0,0,.235.173.4.4,0,0,0,.3-.041.4.4,0,0,0,.188-.246.4.4,0,0,0-.04-.307L11.341,14.264a.559.559,0,0,1,.127-.684c1.442-1.25,1.513-3.116.2-5.4L7.456.835a.559.559,0,0,1,.2-.76.551.551,0,0,1,.755.2l4.216,7.35c1.929,3.362.9,5.425-.115,6.485l2.716,5.1,3.4-6.144c-1.013-1.062-2.035-3.124-.11-6.48C20.338,3.428,24.6-.225,27.145,1.254s1.533,7.02-.283,10.185c-1.919,3.346-4.2,3.493-5.617,3.147l-4.325,7.808,5.292,9.946a1.523,1.523,0,0,1-.56,2.057,1.484,1.484,0,0,1-1.144.151ZM9,32.759a.411.411,0,0,0-.044.314.4.4,0,0,0,.492.286.4.4,0,0,0,.244-.189l4.87-8.793-.451-.847ZM19.48,7.149c-1.308,2.28-1.237,4.146.205,5.4a.559.559,0,0,1,.122.692L15.85,20.382l.451.847L20.5,13.656a.552.552,0,0,1,.665-.255c1.8.632,3.437-.239,4.745-2.519,1.895-3.3,2.248-7.758.687-8.666a1.5,1.5,0,0,0-.765-.186C24.044,2.031,21.11,4.306,19.48,7.149Zm-12.5,4.3L2.535,3.694a.559.559,0,0,1,.2-.76.551.551,0,0,1,.755.2l4.449,7.756a.558.558,0,0,1-.2.76.551.551,0,0,1-.755-.2Zm2.461-1.43L5,2.264a.558.558,0,0,1,.2-.76.551.551,0,0,1,.755.2L10.4,9.464a.559.559,0,0,1-.2.76.551.551,0,0,1-.755-.2Z"/>
</svg>
