<svg xmlns="http://www.w3.org/2000/svg" width="35.418" height="32.936" viewBox="0 0 35.418 32.936">
  <path id="パス_23" data-name="パス 23" d="M-1066.5-224.663a.549.549,0,0,0-.11-.463.556.556,0,0,0-.432-.206h-7.364v-3.752a9.78,9.78,0,0,0-9.791-9.747,9.78,9.78,0,0,0-9.791,9.747v3.752h-7.364a.556.556,0,0,0-.432.206.55.55,0,0,0-.11.463l2.713,12.423s0,0,0,0l.747,3.414a3.64,3.64,0,0,0,3.57,2.927h21.334a3.636,3.636,0,0,0,3.568-2.916l.749-3.425v0Zm-1.23.435-2.472,11.322h-4.2v-11.322Zm-21.668,11.322v-11.322h10.4v11.322Zm-3.48-11.322h2.371v11.322h-2.371Zm13.883-1.1h-10.4v-3.431a5.2,5.2,0,0,1,5.2-5.178,5.2,5.2,0,0,1,5.2,5.178Zm1.109,1.1h2.371v11.322h-2.371Zm-14.992-4.856a8.672,8.672,0,0,1,8.681-8.643,8.672,8.672,0,0,1,8.682,8.643v3.752h-2.371v-3.431a6.3,6.3,0,0,0-6.311-6.282,6.3,6.3,0,0,0-6.311,6.282v3.431h-2.371Zm-1.109,4.856v11.322h-4.2l-2.473-11.322ZM-1073.529-207h-21.334a2.533,2.533,0,0,1-2.484-2.046l-.6-2.756h27.505l-.6,2.767A2.529,2.529,0,0,1-1073.529-207Z" transform="translate(1101.905 238.831)"/>
</svg>
