<svg xmlns="http://www.w3.org/2000/svg" width="28" height="26" viewBox="0 0 28 26">
  <path id="パス_23" data-name="パス 23" d="M-1073.915-227.646a.433.433,0,0,0-.087-.366.439.439,0,0,0-.341-.163h-5.822v-2.962a7.726,7.726,0,0,0-7.74-7.694,7.726,7.726,0,0,0-7.74,7.694v2.962h-5.821a.44.44,0,0,0-.342.163.434.434,0,0,0-.087.366l2.145,9.807a.021.021,0,0,1,0,0l.59,2.7a2.877,2.877,0,0,0,2.822,2.311h16.866a2.874,2.874,0,0,0,2.821-2.3l.592-2.7h0Zm-.973.343-1.954,8.938h-3.323V-227.3Zm-17.129,8.938V-227.3h8.224v8.938Zm-2.751-8.938h1.874v8.938h-1.874Zm10.975-.872h-8.224v-2.708a4.1,4.1,0,0,1,4.112-4.087,4.1,4.1,0,0,1,4.112,4.087Zm.877.872h1.874v8.938h-1.874Zm-11.852-3.834a6.851,6.851,0,0,1,6.863-6.823,6.851,6.851,0,0,1,6.863,6.823v2.962h-1.874v-2.708a4.98,4.98,0,0,0-4.989-4.959,4.98,4.98,0,0,0-4.989,4.959v2.708h-1.874Zm-.877,3.834v8.938h-3.323l-1.955-8.938Zm16.173,13.6h-16.866a2,2,0,0,1-1.964-1.615l-.476-2.176h21.745l-.478,2.184A2,2,0,0,1-1079.472-213.7Z" transform="translate(1101.905 238.831)"/>
</svg>
