<svg id="sp_mypage" xmlns="http://www.w3.org/2000/svg" width="14.043" height="19.838" viewBox="0 0 14.043 19.838">
  <g id="合体_4" data-name="合体 4" transform="translate(-0.305 -1)" fill="none">
    <path d="M.305,17.255c0-3.348,1.33-6.25,3.277-7.688A5.256,5.256,0,0,1,2.3,6.1,4.968,4.968,0,0,1,7.123,1a4.967,4.967,0,0,1,4.817,5.1,5.27,5.27,0,0,1-1.127,3.282c2.087,1.365,3.536,4.374,3.536,7.868,0,2.389-3.511,3.583-7.021,3.583S.305,19.643.305,17.255Z" stroke="none"/>
    <path d="M 7.326450347900391 19.83769989013672 C 9.001810073852539 19.83769989013672 10.61069011688232 19.54376983642578 11.74055004119873 19.03128051757812 C 12.47377014160156 18.69869995117188 13.34780025482178 18.12053108215332 13.34780025482178 17.25480079650879 C 13.34780025482178 14.20880031585693 12.13757038116455 11.44893074035645 10.2645902633667 10.22372055053711 L 9.347800254821777 9.624000549316406 L 10.02844047546387 8.765580177307129 C 10.61588001251221 8.024690628051758 10.9394006729126 7.079710483551025 10.9394006729126 6.104700565338135 C 10.9394006729126 3.841310262680054 9.227190017700195 1.999900341033936 7.122600555419922 1.999900341033936 C 5.017510414123535 1.999900341033936 3.304900407791138 3.841310262680054 3.304900407791138 6.104700565338135 C 3.304900407791138 7.150490283966064 3.671110391616821 8.146660804748535 4.336070537567139 8.909700393676758 L 5.048320293426514 9.727010726928711 L 4.176270484924316 10.37108039855957 C 3.346070289611816 10.98424053192139 2.638710260391235 11.92562007904053 2.130640268325806 13.09346008300781 C 1.590570330619812 14.33488082885742 1.305100321769714 15.773850440979 1.305100321769714 17.25480079650879 C 1.305100321769714 18.12053108215332 2.17913031578064 18.69869995117188 2.912350416183472 19.03128051757812 C 4.042210578918457 19.54376983642578 5.651090145111084 19.83769989013672 7.326450347900391 19.83769989013672 M 7.326450347900391 20.83769989013672 C 3.815770387649536 20.83769989013672 0.3051003515720367 19.64340019226074 0.3051003515720367 17.25480079650879 C 0.3051003515720367 13.90720081329346 1.635570406913757 11.00438022613525 3.582170248031616 9.566690444946289 C 2.789310455322266 8.656880378723145 2.304900407791138 7.440890312194824 2.304900407791138 6.104700565338135 C 2.304900407791138 3.285900354385376 4.462200164794922 0.9999003410339355 7.122600555419922 0.9999003410339355 C 9.782999992370605 0.9999003410339355 11.9394006729126 3.285900354385376 11.9394006729126 6.104700565338135 C 11.9394006729126 7.354670524597168 11.51560020446777 8.499510765075684 10.81202030181885 9.386870384216309 C 12.89860057830811 10.75181007385254 14.34780025482178 13.76112079620361 14.34780025482178 17.25480079650879 C 14.34780025482178 19.64340019226074 10.83712005615234 20.83769989013672 7.326450347900391 20.83769989013672 Z" stroke="none" fill="#707070"/>
  </g>
</svg>
