<svg xmlns="http://www.w3.org/2000/svg" width="23" height="28" viewBox="0 0 23 28">
  <path id="合体_1" data-name="合体 1" d="M16.451,27.957a1.2,1.2,0,0,1-.734-.572l-3.543-6.717L8.541,27.286a1.2,1.2,0,0,1-1.052.62,1.191,1.191,0,0,1-.6-.165A1.218,1.218,0,0,1,6.324,27a1.235,1.235,0,0,1,.121-.932L10.818,18.1,7.941,12.642c-1.14.279-2.963.155-4.5-2.548L.059,4.147a.454.454,0,0,1,.162-.615A.44.44,0,0,1,.827,3.7L4.209,9.644c1.049,1.845,2.366,2.55,3.806,2.038a.442.442,0,0,1,.537.213l7.94,15.053a.316.316,0,0,0,.189.14.323.323,0,0,0,.395-.232.328.328,0,0,0-.032-.248L9.1,11.543a.455.455,0,0,1,.1-.554c1.157-1.012,1.213-2.521.164-4.366L5.981.675A.454.454,0,0,1,6.143.06a.44.44,0,0,1,.606.165L10.13,6.173c1.547,2.721.721,4.39-.093,5.248l2.179,4.13,2.729-4.972c-.812-.86-1.632-2.528-.089-5.244,1.457-2.561,4.874-5.517,6.916-4.321S23,6.7,21.547,9.257c-1.54,2.707-3.366,2.826-4.505,2.547l-3.469,6.319,4.245,8.048a1.238,1.238,0,0,1-.45,1.665,1.181,1.181,0,0,1-.917.122ZM7.215,26.509a.335.335,0,0,0-.036.254.326.326,0,0,0,.15.2.319.319,0,0,0,.44-.12l3.907-7.116-.362-.686Zm8.41-20.724c-1.049,1.845-.992,3.355.165,4.366a.455.455,0,0,1,.1.56l-3.174,5.782.362.686,3.364-6.128a.441.441,0,0,1,.533-.206c1.441.511,2.757-.194,3.806-2.038,1.52-2.674,1.8-6.278.551-7.012a1.2,1.2,0,0,0-.614-.151C19.287,1.644,16.933,3.484,15.625,5.785ZM5.6,9.265,2.033,2.99A.454.454,0,0,1,2.2,2.375a.439.439,0,0,1,.606.165L6.37,8.815a.454.454,0,0,1-.162.615.437.437,0,0,1-.221.06A.442.442,0,0,1,5.6,9.265ZM7.576,8.108,4.007,1.832a.454.454,0,0,1,.162-.615.44.44,0,0,1,.605.165L8.344,7.658a.454.454,0,0,1-.162.615.44.44,0,0,1-.606-.165Z"/>
</svg>
