<svg xmlns="http://www.w3.org/2000/svg" width="26" height="26" viewBox="0 0 26 26">
  <path id="合体_2" data-name="合体 2" d="M17.009,26a.443.443,0,0,1-.45-.435V8.481a2.506,2.506,0,0,1,2.428-2.458V4.493a2.294,2.294,0,0,1,4.585,0V6.023A2.506,2.506,0,0,1,26,8.481V25.565a.443.443,0,0,1-.45.435Zm.45-17.519V25.13H25.1V8.481a1.631,1.631,0,0,0-1.655-1.6h-4.33A1.631,1.631,0,0,0,17.459,8.481Zm2.428-3.988V5.841h2.786V4.493a1.394,1.394,0,0,0-2.786,0ZM3.453,26a.457.457,0,0,1-.327-.137A.427.427,0,0,1,3,25.539l.6-9.534L3,6.471a.427.427,0,0,1,.122-.324.456.456,0,0,1,.327-.137H7.065V2.977H5.253a.443.443,0,0,1-.45-.435V.988l-4.247,1A.457.457,0,0,1,.45,2a.447.447,0,0,1-.437-.332A.434.434,0,0,1,.344,1.14L5.146.012a.113.113,0,0,1,.031,0H5.2A.451.451,0,0,1,5.253,0h4.942a.442.442,0,0,1,.45.435V2.542a.443.443,0,0,1-.45.435H8.383V6.01h3.611a.457.457,0,0,1,.327.137.427.427,0,0,1,.122.324l-.6,9.534.6,9.534a.427.427,0,0,1-.122.324.457.457,0,0,1-.327.137ZM4.5,15.979a.448.448,0,0,1,0,.052l-.57,9.1h7.585l-.57-9.1c0-.017,0-.035,0-.052l.57-9.1H3.931ZM5.7,2.107H9.745V.87H5.7Z"/>
</svg>
