<svg xmlns="http://www.w3.org/2000/svg" width="34" height="25" viewBox="0 0 34 25">
  <path id="合体_3" data-name="合体 3" d="M4.979,16.941c-.133.012-.263.019-.389.019A4.531,4.531,0,0,1,0,12.5,4.531,4.531,0,0,1,4.589,8.04c.126,0,.256.007.389.019a13,13,0,0,1,24.043,0c.134-.012.263-.019.389-.019A4.531,4.531,0,0,1,34,12.5a4.531,4.531,0,0,1-4.589,4.46c-.126,0-.256-.007-.389-.019a13,13,0,0,1-24.043,0ZM5.042,12.5A11.806,11.806,0,0,0,17,24.12,11.806,11.806,0,0,0,28.958,12.5,11.806,11.806,0,0,0,17,.879,11.806,11.806,0,0,0,5.042,12.5ZM29.324,8.924a12.13,12.13,0,0,1,0,7.153c.028,0,.059,0,.087,0a3.582,3.582,0,1,0,0-7.161C29.383,8.92,29.352,8.923,29.324,8.924ZM.9,12.5a3.638,3.638,0,0,0,3.684,3.58c.028,0,.058,0,.087,0a12.126,12.126,0,0,1,0-7.153c-.029,0-.059,0-.087,0A3.638,3.638,0,0,0,.9,12.5Zm18.08,2.01a1.377,1.377,0,1,1,1.377,1.338A1.358,1.358,0,0,1,18.984,14.51Zm-6.722,0a1.377,1.377,0,1,1,1.377,1.338A1.358,1.358,0,0,1,12.262,14.51Zm6.871-8.291a.453.453,0,0,1,.905,0,3.893,3.893,0,0,0,3.943,3.832.44.44,0,1,1,0,.879A4.787,4.787,0,0,1,19.133,6.218Zm-5.688,0a.453.453,0,0,1,.9,0,3.893,3.893,0,0,0,3.943,3.832.44.44,0,1,1,0,.879A4.787,4.787,0,0,1,13.445,6.218Z"/>
</svg>
