<svg id="phone-call" xmlns="http://www.w3.org/2000/svg" width="26.66" height="26.66" viewBox="0 0 26.66 26.66">
  <g id="グループ_3" data-name="グループ 3">
    <path id="パス_1" data-name="パス 1" d="M24.556,17.554a15.242,15.242,0,0,1-4.782-.761,2.049,2.049,0,0,0-2.081.441L14.666,19.52A16.906,16.906,0,0,1,7.142,12L9.366,9.042A2.124,2.124,0,0,0,9.887,6.9,15.236,15.236,0,0,1,9.121,2.1,2.107,2.107,0,0,0,7.016,0H2.1A2.107,2.107,0,0,0,0,2.1,24.584,24.584,0,0,0,24.556,26.66a2.107,2.107,0,0,0,2.1-2.1v-4.9A2.107,2.107,0,0,0,24.556,17.554Z" fill="#fd4500"/>
  </g>
</svg>
