<svg xmlns="http://www.w3.org/2000/svg" width="64.75" height="64.69" viewBox="0 0 64.75 64.69">
  <defs>
    <style>
      .cls-1 {
        fill: #fff;
        fill-rule: evenodd;
      }
    </style>
  </defs>
  <path id="btn_facebook.svg" class="cls-1" d="M321.275,9240.31h-51.8a6.491,6.491,0,0,0-6.475,6.47v51.75a6.491,6.491,0,0,0,6.475,6.47h51.8a6.491,6.491,0,0,0,6.475-6.47v-51.75A6.491,6.491,0,0,0,321.275,9240.31Zm-3.238,6.47v9.7h-6.475a3.062,3.062,0,0,0-3.237,3.24v6.47h9.712v9.7h-9.712v22.64h-9.713v-22.64h-6.475v-9.7h6.475v-8.09a11.462,11.462,0,0,1,11.332-11.32h8.093Z" transform="translate(-263 -9240.31)"/>
</svg>
