<svg id="btn_guide_02.svg" xmlns="http://www.w3.org/2000/svg" width="114" height="114" viewBox="0 0 114 114">
  <defs>
    <style>
      .cls-1 {
        fill: #fecdc2;
      }

      .cls-2 {
        fill: #fff;
        fill-rule: evenodd;
      }
    </style>
  </defs>
  <circle id="楕円形_7" data-name="楕円形 7" class="cls-1" cx="57" cy="57" r="57"/>
  <path id="シェイプ_27" data-name="シェイプ 27" class="cls-2" d="M885.44,3972.78h-1.653a1.549,1.549,0,0,1-1.556-1.31,9,9,0,0,0-17.76,0,1.55,1.55,0,0,1-1.557,1.31H861.26a1.552,1.552,0,0,1-1.56-1.55v-30.17a1.552,1.552,0,0,1,1.56-1.55h11.455a1.564,1.564,0,0,1,1.2.55l12.725,15.09a1.541,1.541,0,0,1,.364.99v15.09A1.553,1.553,0,0,1,885.44,3972.78Zm-6.49-21.88-6.5-7.74a1.578,1.578,0,0,0-1.2-.56H864.38a1.559,1.559,0,0,0-1.56,1.55v7.74a1.559,1.559,0,0,0,1.56,1.55h13.371A1.548,1.548,0,0,0,878.95,3950.9Zm-23.93,21.88H835.427a1.549,1.549,0,0,1-1.556-1.31,9,9,0,0,0-17.761,0,1.548,1.548,0,0,1-1.556,1.31H810.56a1.552,1.552,0,0,1-1.56-1.55v-38.68a1.552,1.552,0,0,1,1.56-1.55h44.46a1.553,1.553,0,0,1,1.56,1.55v38.68A1.553,1.553,0,0,1,855.02,3972.78Zm-30.03-5.93a6.575,6.575,0,1,1-6.63,6.57A6.61,6.61,0,0,1,824.99,3966.85Zm48.36,0a6.575,6.575,0,1,1-6.63,6.57A6.61,6.61,0,0,1,873.35,3966.85Z" transform="translate(-790 -3899)"/>
</svg>
