<svg xmlns="http://www.w3.org/2000/svg" width="74" height="60.06" viewBox="0 0 74 60.06">
  <defs>
    <style>
      .cls-1 {
        fill: #fff;
        fill-rule: evenodd;
      }
    </style>
  </defs>
  <path id="btn_twitter.svg" class="cls-1" d="M522,9249.73a30.374,30.374,0,0,1-8.72,2.39,15.223,15.223,0,0,0,6.675-8.39,30.359,30.359,0,0,1-9.64,3.68,15.19,15.19,0,0,0-25.872,13.83,43.122,43.122,0,0,1-31.292-15.84,15.161,15.161,0,0,0,4.7,20.24,15.1,15.1,0,0,1-6.876-1.9c0,0.07,0,.13,0,0.2a15.171,15.171,0,0,0,12.179,14.86,14.925,14.925,0,0,1-6.856.26,15.206,15.206,0,0,0,14.182,10.54,30.526,30.526,0,0,1-18.855,6.49,30.932,30.932,0,0,1-3.622-.21,43.029,43.029,0,0,0,23.273,6.81c27.926,0,43.2-23.11,43.2-43.15,0-.66-0.015-1.31-0.044-1.96A30.9,30.9,0,0,0,522,9249.73Z" transform="translate(-448 -9242.63)"/>
</svg>
