<svg id="btn_guide_01.svg" xmlns="http://www.w3.org/2000/svg" width="114" height="114" viewBox="0 0 114 114">
  <defs>
    <style>
      .cls-1 {
        fill: #fecdc2;
      }

      .cls-2 {
        fill: #fff;
        fill-rule: evenodd;
      }
    </style>
  </defs>
  <circle id="楕円形_7" data-name="楕円形 7" class="cls-1" cx="57" cy="57" r="57"/>
  <path id="Forma_1" data-name="Forma 1" class="cls-2" d="M588.568,3950.86a0.637,0.637,0,0,0-.338-0.55l-30.354-18.2a0.983,0.983,0,0,0-.955-0.01l-13.629,7.72a0.653,0.653,0,0,0-.356.56,0.639,0.639,0,0,0,.356.55l31.239,17.7a0.975,0.975,0,0,0,.937,0l12.744-7.22A0.663,0.663,0,0,0,588.568,3950.86Zm19.991-7.1a0.981,0.981,0,0,0-.852.05l-30.624,17.34a0.664,0.664,0,0,0-.356.56v26.61a0.669,0.669,0,0,0,.441.6,1.01,1.01,0,0,0,.383.08,0.943,0.943,0,0,0,.468-0.12l30.625-17.35a0.637,0.637,0,0,0,.356-0.55v-26.62A0.68,0.68,0,0,0,608.559,3943.76Zm-35.642,17.39-30.624-17.34a0.978,0.978,0,0,0-.851-0.05,0.679,0.679,0,0,0-.442.6v26.62a0.637,0.637,0,0,0,.356.55l30.624,17.35a0.954,0.954,0,0,0,.469.12,1.01,1.01,0,0,0,.383-0.08,0.669,0.669,0,0,0,.441-0.6v-26.61A0.664,0.664,0,0,0,572.917,3961.15Zm-11.161-30.7,30.354,18.2a0.922,0.922,0,0,0,.487.13,0.953,0.953,0,0,0,.468-0.12l13.643-7.73a0.611,0.611,0,0,0,0-1.11l-31.24-17.7a0.975,0.975,0,0,0-.937,0l-12.757,7.23a0.663,0.663,0,0,0-.356.55A0.637,0.637,0,0,0,561.756,3930.45Z" transform="translate(-518 -3899)"/>
</svg>
