<svg id="btn_guide_03.svg" xmlns="http://www.w3.org/2000/svg" width="115" height="115" viewBox="0 0 115 115">
  <defs>
    <style>
      .cls-1 {
        fill: #fecdc2;
      }

      .cls-2 {
        fill: #fff;
        fill-rule: evenodd;
      }
    </style>
  </defs>
  <circle id="楕円形_7" data-name="楕円形 7" class="cls-1" cx="57.5" cy="57.5" r="57.5"/>
  <path id="シェイプ_30" data-name="シェイプ 30" class="cls-2" d="M1115.67,3968.2h9.45v-6.08h-9.45q-5.97,0-5.97-3.97c0-2.58,1.99-3.88,5.97-3.88H1121l-12.56-19.79a32.733,32.733,0,0,1-1.98-3.38,5.312,5.312,0,0,1-.46-2.24,4.784,4.784,0,0,1,1.32-3.52,4.6,4.6,0,0,1,3.43-1.33,4.762,4.762,0,0,1,3.47,1.31,22.973,22.973,0,0,1,3.08,4.22l13.58,21.36,12.14-20.14c0.45-.78.93-1.61,1.43-2.47a18.846,18.846,0,0,1,1.47-2.19,5.583,5.583,0,0,1,1.79-1.5,5.128,5.128,0,0,1,2.54-.59,4.745,4.745,0,0,1,3.43,1.28,4.236,4.236,0,0,1,1.32,3.15,6.774,6.774,0,0,1-.53,2.7,24.905,24.905,0,0,1-1.66,3.08l-12.11,20.05h5.34c3.95,0,5.93,1.3,5.93,3.88q0,3.975-5.93,3.97h-9.49v6.08h9.49q5.925,0,5.93,3.97c0,2.58-1.98,3.88-5.93,3.88h-9.49v3.37q0,8.58-5.67,8.57-5.76,0-5.77-8.57v-3.37h-9.45c-3.98,0-5.97-1.3-5.97-3.88C1109.69,3969.52,1111.69,3968.2,1115.67,3968.2Z" transform="translate(-1073 -3898)"/>
</svg>
