<svg id="btn_guide_04.svg" xmlns="http://www.w3.org/2000/svg" width="115" height="115" viewBox="0 0 115 115">
  <defs>
    <style>
      .cls-1 {
        fill: #fecdc2;
      }

      .cls-2 {
        fill: #fff;
        fill-rule: evenodd;
      }
    </style>
  </defs>
  <circle id="楕円形_7" data-name="楕円形 7" class="cls-1" cx="57.5" cy="57.5" r="57.5"/>
  <path id="シェイプ_29" data-name="シェイプ 29" class="cls-2" d="M1405.58,3922c11.8,0,23.42,5.34,23.42,18.1,0,11.77-13.74,16.3-16.69,20.55-2.21,3.17-1.47,7.61-7.56,7.61a5.8,5.8,0,0,1-5.9-6.06c0-10.78,16.13-13.22,16.13-22.1,0-4.88-3.31-7.78-8.85-7.78-11.8,0-7.19,11.95-16.13,11.95-3.23,0-6-1.9-6-5.52C1384,3929.87,1394.33,3922,1405.58,3922Zm-0.46,52.14a7.426,7.426,0,1,1-7.57,7.43A7.534,7.534,0,0,1,1405.12,3974.14Z" transform="translate(-1349 -3898)"/>
</svg>
