<svg xmlns="http://www.w3.org/2000/svg" width="64.75" height="64.69" viewBox="0 0 64.75 64.69">
  <defs>
    <style>
      .cls-1 {
        fill: #fff;
        fill-rule: evenodd;
      }
    </style>
  </defs>
  <path id="btn_instagram.svg" class="cls-1" d="M390.187,9243.83c8.645,0,9.669.03,13.083,0.19a17.93,17.93,0,0,1,6.011,1.11,10.717,10.717,0,0,1,6.145,6.14,17.874,17.874,0,0,1,1.114,6c0.156,3.42.189,4.44,0.189,13.07s-0.033,9.66-.189,13.07a17.89,17.89,0,0,1-1.114,6.01,10.717,10.717,0,0,1-6.145,6.14,17.93,17.93,0,0,1-6.011,1.11c-3.414.16-4.438,0.19-13.083,0.19s-9.668-.03-13.082-0.19a17.924,17.924,0,0,1-6.011-1.11,10.717,10.717,0,0,1-6.145-6.14,17.89,17.89,0,0,1-1.114-6.01c-0.156-3.41-.189-4.43-0.189-13.07s0.033-9.65.189-13.07a17.874,17.874,0,0,1,1.114-6,10.717,10.717,0,0,1,6.145-6.14,17.924,17.924,0,0,1,6.011-1.11c3.414-.16,4.438-0.19,13.082-0.19m0-5.83c-8.792,0-9.9.04-13.348,0.19a23.821,23.821,0,0,0-7.858,1.51,16.538,16.538,0,0,0-9.469,9.46,23.769,23.769,0,0,0-1.5,7.85c-0.157,3.45-.195,4.55-0.195,13.33s0.038,9.89.195,13.34a23.769,23.769,0,0,0,1.5,7.85,16.538,16.538,0,0,0,9.469,9.46,23.594,23.594,0,0,0,7.858,1.5c3.453,0.16,4.556.2,13.348,0.2s9.895-.04,13.349-0.2a23.594,23.594,0,0,0,7.858-1.5,16.538,16.538,0,0,0,9.469-9.46,23.769,23.769,0,0,0,1.5-7.85c0.157-3.45.194-4.55,0.194-13.34s-0.037-9.88-.194-13.33a23.769,23.769,0,0,0-1.5-7.85,16.538,16.538,0,0,0-9.469-9.46,23.821,23.821,0,0,0-7.858-1.51c-3.454-.15-4.556-0.19-13.349-0.19h0Zm0,15.73a16.61,16.61,0,1,0,16.625,16.61A16.62,16.62,0,0,0,390.187,9253.73Zm0,27.4a10.785,10.785,0,1,1,10.792-10.79A10.79,10.79,0,0,1,390.187,9281.13Zm21.167-28.05a3.885,3.885,0,1,1-3.885-3.88A3.884,3.884,0,0,1,411.354,9253.08Z" transform="translate(-357.813 -9238)"/>
</svg>
