<svg id="コンポーネント_4_2" data-name="コンポーネント 4 – 2" xmlns="http://www.w3.org/2000/svg" width="169.929" height="36.11" viewBox="0 0 169.929 36.11">
  <g id="グループ_2" data-name="グループ 2" transform="translate(1347.143 -250.722) rotate(3)">
    <path id="パス_2" data-name="パス 2" d="M-355.68,359.109c-.3.215-.213.834-.794.808-.386-.017-1.29-.865-1.213-1.2.08-.347.216-.728.711-.71C-356.436,358.032-355.656,358.67-355.68,359.109Z" transform="translate(-829.849 -31.727)" fill="#010100"/>
    <g id="グループ_1" data-name="グループ 1" transform="translate(-1330.747 325.431)">
      <path id="パス_3" data-name="パス 3" d="M-1167.055,389.619c-.087.322-.5.529-.121.856.061.052-.031.221-.143.3-.7.5-1.332,1.059-2.086,1.5a5.831,5.831,0,0,1-4.569.293,3.345,3.345,0,0,1-2.235-2.256,6.794,6.794,0,0,1-.19-3.639c.037-.232.154-.566-.111-.56-.338.008-.981.09-.938.437.1.8-.575.972-.941,1.178a6.555,6.555,0,0,1-2.7.751,2.178,2.178,0,0,0-.353.037c-1.052.263-1.261.735-1.132,2.218a8.988,8.988,0,0,1-.484,3.7,1.653,1.653,0,0,1-1.535,1.006,3.093,3.093,0,0,1-2.406-1.072c-.145-.128-.067-.22-.006-.357a.3.3,0,0,1,.49-.109,1.1,1.1,0,0,0,1.157.054c.827-.334.663-1.179.752-1.766.1-.657.094-1.363.162-2.045.085-.846-.172-1.119-1-.976a31.425,31.425,0,0,1-3.769.583,2.259,2.259,0,0,1-1.984-.551c-.311-.331-.373-.019-.413.227a11.464,11.464,0,0,0-.216,2.693,6.45,6.45,0,0,1-.039,1.312c-.061.46-.276.905-.823.834a1.066,1.066,0,0,1-1-.935c-.07-.66-.068-1.328-.073-1.993a8.333,8.333,0,0,1,.737-3.923c.072-.143-.016-.359.031-.524.155-.539.417-.772.75-.712.944.171,1.21.455,1.176,1.212-.013.3-.286.625.464.594,1.716-.071,3.354-.54,5.039-.728.071-.008.14-.034.21-.038.895-.052.955-.183.9-1.077-.106-1.617-.229-3.24-.188-4.857.05-1.959,1.06-2.587,3-3.059a2.562,2.562,0,0,1,2.781.882c.279.343.661.63.982.959a.662.662,0,0,1,.067.972.645.645,0,0,1-1.014.007,3.049,3.049,0,0,1-.728-.858c-.4-.779-1.166-.514-1.794-.423a1.662,1.662,0,0,0-1.443,1.755c.014.655.19,1.31.164,1.96-.038.962.076,1.908.12,2.862.011.243.043.336.295.372a7.782,7.782,0,0,0,2.679-.239c.29-.059.662-.213.259-.667a.632.632,0,0,1,.36-1.056c1.016-.217,2-.544,2.994-.826a.766.766,0,0,0,.6-.525,15.686,15.686,0,0,1,1.612-2.965c.346-.545.8-.347,1.148-.214.4.155.421.636.289,1.01-.236.667-.541,1.31-.8,1.967-.046.114-.219.223-.063.376.136.133.249-.047.386-.035.1.008.2-.126.3-.181.692-.356.877-.292,1.2.622.178.5-.214.822-.63.963a6.493,6.493,0,0,1-1.732.578c-.337.018-.525.254-.586.626a8.931,8.931,0,0,0-.117,3.372,1.472,1.472,0,0,0,1.245,1.277,5.812,5.812,0,0,0,2.449.088,7.58,7.58,0,0,0,2.432-1.16A1.386,1.386,0,0,1-1167.055,389.619Z" transform="translate(1213.93 -374.317)"/>
      <path id="パス_4" data-name="パス 4" d="M-1315.839,365.72a7.438,7.438,0,0,0-2.422.661,14.89,14.89,0,0,1-3.243.673c-.495.062-1.073-.741-1.046-1.2.02-.342.2-.309.386-.375.865-.314,1.793-.433,2.647-.722.979-.331,1.988-.554,2.953-.91.82-.3,1.663-.517,2.486-.792.469-.156.751.092,1.069.233.346.153.18,1.112-.294,1.288-.822.306-.729.907-.659,1.533.092.832-.394,1.552-.418,2.372-.048,1.607-.477,3.181-.429,4.806.01.355.3.625.116,1.078-.165.414-.471.574-.682.507-.354-.113-.864,0-1.021-.594a6.955,6.955,0,0,1-.256-2.678c.016-.127.119-.313-.077-.371-.084-.025-.225.061-.31.133a17.176,17.176,0,0,1-4.068,2.765,7.171,7.171,0,0,1-4.532.654,7.017,7.017,0,0,1-4.366-3.249,5.265,5.265,0,0,1-.716-3.488,9.612,9.612,0,0,1,1.925-4.673c.972-1.483,2.052-2.884,3.094-4.308a20.988,20.988,0,0,1,2.913-3.274c.781-.7,1.42-1.561,2.225-2.226.763-.631,1.425-1.553,2.667-1.3a.971.971,0,0,1,.819.709c.109.377-.225.6-.5.718a10.488,10.488,0,0,0-3.011,2.569,29.463,29.463,0,0,0-2.178,2.161c-.869,1.069-1.766,2.113-2.579,3.227a37.92,37.92,0,0,0-2.41,3.751c-.9,1.6-1.5,3.292-.792,5.145a4.2,4.2,0,0,0,4.839,2.693,9.642,9.642,0,0,0,2.8-1.37,10.9,10.9,0,0,0,3.067-2.593c.724-.944,1.691-1.839,1.851-3.15A.666.666,0,0,1-1315.839,365.72Z" transform="translate(1330.747 -352.221)"/>
      <path id="パス_5" data-name="パス 5" d="M-1189.624,413.169c-1.034.52-1.263.5-1.968-.195a.6.6,0,0,1-.081-.8.553.553,0,0,1,.722-.233A2.536,2.536,0,0,1-1189.624,413.169Z" transform="translate(1212.24 -403.114)" fill="#010100"/>
    </g>
    <path id="パス_6" data-name="パス 6" d="M-446.466,323c-.246.886.205.788.867.7,1.06-.138,2.141-.12,3.212-.177a4.54,4.54,0,0,0,.7-.1,1.13,1.13,0,0,1,1.456.761c.081.241-.107.3-.214.41-.783.809-1.849.762-2.842.9-.962.135-1.936.217-2.9.29-.8.06-.77.527-.778,1.026-.013.871-.224,1.712-.32,2.567a16.561,16.561,0,0,0,.047,5.619c.031.134.092.263.192.286.831.195.492.909.339,1.2-.23.435-.74.525-1.315.263-.949-.431-1.11-1.3-1.339-2.117a10.862,10.862,0,0,1-.239-3.9c.117-1.3.323-2.6.46-3.9.04-.383.116-.57-.5-.475-1.984.308-3.94.787-5.949.945a1.918,1.918,0,0,1-1.876-1.062.782.782,0,0,1,.692-.92c1.376-.059,2.711-.542,4.106-.375a.433.433,0,0,0,.217-.005,8.373,8.373,0,0,1,3.1-.65c.845-.049.671-.8.817-1.278a8.293,8.293,0,0,0,.172-1.527c.027-.258-.031-.632.313-.654s.731-.105,1.017.237A2.278,2.278,0,0,1-446.466,323Z" transform="translate(-744.739)"/>
    <path id="パス_7" data-name="パス 7" d="M-527.281,379.19a3.853,3.853,0,0,0,2.4-.469c.517-.2.379-.792.638-1.174.945-1.4,1.9-2.73,3.645-3.216a2.507,2.507,0,0,1,2.584,1.614c.025.241-.094.526-.228.572-.64.22-.267.581-.114.831.3.492.7.925,1.011,1.41a.5.5,0,0,0,.829.153c.328-.254.764-.571.938-.069.136.392.694.9-.066,1.474a2.172,2.172,0,0,1-1.3.577,1.511,1.511,0,0,1-1.287-.51,9.261,9.261,0,0,1-1.218-1.637,1.366,1.366,0,0,0-.131-.25c-.461-.665-.568-.683-1.135-.125-.481.474-.958.948-1.472,1.389-.357.307-.73.523-1.124.365-.864-.346-1.536.19-2.262.4-1.386.408-3.849.557-4.852-1.063a3.683,3.683,0,0,1-.333-3.658,4.423,4.423,0,0,1,3.262-2.887,3.178,3.178,0,0,1,2.084.534c.337.187.272.584.123.853a.459.459,0,0,1-.711.194,1.275,1.275,0,0,0-1.75.158,3.564,3.564,0,0,0-1.4,2.879C-529.114,379.083-528.524,379.133-527.281,379.19Z" transform="translate(-681.958 -44.42)"/>
    <path id="パス_8" data-name="パス 8" d="M-652.428,391.305a1.117,1.117,0,0,1-.435,1.33,1.141,1.141,0,0,1-1.445-.1c-.779-.665-.885-.786-1.469-2.606a6.871,6.871,0,0,1-1.843,1.458,2.27,2.27,0,0,1-3.4-1.437,5.936,5.936,0,0,1,.349-3.179.676.676,0,0,1,.931-.425.876.876,0,0,1,.729.848,4.431,4.431,0,0,1-.2,1.4c-.147.421.059.734.157,1.075.037.128.134.333.487.1a7.112,7.112,0,0,0,2.552-2.917c.5-1.017,1.038-1.227,1.721-.585a1.337,1.337,0,0,1,.293,1.193,7.074,7.074,0,0,0,.5,3.416c.039.1.107.5.242.276.233-.383.938.493.914-.477a18.634,18.634,0,0,1,.88-4.975.7.7,0,0,1,.819-.544.958.958,0,0,1,.753.946,2.665,2.665,0,0,1-.233,1.189c-.125.223.024.433.116.609.127.242.307-.007.434-.049a2.275,2.275,0,0,1,2.21.674c.572.454,1.207.869,1.265,1.773.033.518.163,1.036-.4,1.213-.589.184-1.039-.163-1.315-.725a3.5,3.5,0,0,0-.478-.954c-.318-.342-.676-.429-1.009-.113a3.59,3.59,0,0,0-1.23,1.77c-.107.477-.732.608-1.217.317C-651.987,391.673-652.041,391.339-652.428,391.305Z" transform="translate(-571.056 -54.861)"/>
    <path id="パス_9" data-name="パス 9" d="M-275.7,365.5c.423-1.164.416-2.528.78-3.819a.431.431,0,0,0-.036-.342.624.624,0,0,1-.015-.946.842.842,0,0,1,1.17-.043,1.811,1.811,0,0,1,.785,2.072,3.147,3.147,0,0,0-.011.43c.153-.044.329,0,.455-.148.743-.848,1.8-.792,2.776-.92a2.08,2.08,0,0,1,1.189.424,4.356,4.356,0,0,1,1.943,1.772c.245.483.632.647,1.27.377a7.978,7.978,0,0,1,2.128-.975c.356-.042.823-.255.955.135a1.29,1.29,0,0,1-.381,1.3c-.873.935-2.087,1.4-2.987,2.288-.4.4-1.368.122-1.672-.464-.324-.624-.594-1.276-.9-1.91a2.007,2.007,0,0,0-2.363-1.154c-.27.056-.331.223-.481.346a7.744,7.744,0,0,0-2.364,2.595,1.371,1.371,0,0,1-1.521.652A1.583,1.583,0,0,1-275.7,365.5Z" transform="translate(-899.761 -33.542)"/>
    <path id="パス_10" data-name="パス 10" d="M-357.948,381.119c.035,1.188-.339,2.334-.35,3.517a.751.751,0,0,1-.872.73.991.991,0,0,1-.992-.955c.074-1.395.214-2.788.384-4.175.042-.346.227-.758.726-.709a1.229,1.229,0,0,1,1.025.883A2.708,2.708,0,0,1-357.948,381.119Z" transform="translate(-827.74 -50.074)"/>
    <path id="パス_11" data-name="パス 11" d="M-554.1,389.478a6.915,6.915,0,0,0,.279-1.65c.071-.466.137-.955.757-.866a1.088,1.088,0,0,1,.883,1c.194,1.369-.047,2.759.156,4.137a.55.55,0,0,1-.5.657c-.334.013-.617.309-.97-.145a2.753,2.753,0,0,1-.557-1.573C-554.095,390.494-553.905,389.942-554.1,389.478Z" transform="translate(-662.343 -56.409)"/>
    <path id="パス_12" data-name="パス 12" d="M-552.825,361.667c-.351-.086-1.029-.744-.913-1.061a.691.691,0,0,1,.921-.431,1.166,1.166,0,0,1,.75,1.221C-552.157,361.635-552.308,361.854-552.825,361.667Z" transform="translate(-662.643 -33.543)" fill="#010100"/>
    <path id="パス_13" data-name="パス 13" d="M-948.962,359.679c-.519-.057-.785-.523-1.049-.922-.236-.357-.4-.763-.649-1.109a2.389,2.389,0,0,0-2.673-1.157,3.432,3.432,0,0,0-1.263.708c-.363.281-.527.343-.746-.191a1.3,1.3,0,0,0-2.139-.508c-.262.287-.268.77-.677.965-.271.129.162.669-.283.6-.393-.064-.2-.551-.329-.824a.809.809,0,0,1-.074-.419c.039-.676-.3-1.127-1.192-1.223-.722-.077-.823.489-.876,1.115a1.676,1.676,0,0,0-2.464-.074c-.319.24-.5.123-.442-.289a.837.837,0,0,0-.137-.68,1.586,1.586,0,0,0-2.62-.164,3.7,3.7,0,0,1-.675.44c-.033-.524-.057-.978-.09-1.43-.043-.585-1.189-1.156-1.48-.7a7,7,0,0,0-1.249,2.047c-.377,1.9-1.666,2.805-3.368,3.633a5.61,5.61,0,0,0,.433-2.469,2.524,2.524,0,0,0-2.805-2.374,9.3,9.3,0,0,0-2.55.677,5.752,5.752,0,0,0-2.3,3.206,7.372,7.372,0,0,1-2.329,3.274,11.387,11.387,0,0,1-5.224,2.5c-1.9.248-3.761.442-5.564-.589a5.031,5.031,0,0,1-2.471-2.819,6.017,6.017,0,0,1,.148-3.791,12.633,12.633,0,0,1,6.246-7.461c1.043-.569,1.989-.628,2.734.753a2.6,2.6,0,0,0,.977,1.057c.329.186.651.272.911-.03a.768.768,0,0,0,.058-.913c-.155-.271-.364-.5-.535-.767a3.866,3.866,0,0,0-5.14-1.588,14.561,14.561,0,0,0-4.635,3.813,16.807,16.807,0,0,0-2.05,3.035,8.681,8.681,0,0,0-.843,2.612,7.026,7.026,0,0,0,.559,4.481,7.961,7.961,0,0,0,2.379,2.612,5.536,5.536,0,0,0,2.06,1.052,12.3,12.3,0,0,0,5.5.238,10.621,10.621,0,0,0,6.229-3.2c.2-.221.268-.286.444.121a3.063,3.063,0,0,0,3.346,1.429,6.332,6.332,0,0,0,3.084-2.558c.192-.326.436-.376.8-.443a5.06,5.06,0,0,0,2.9-1.11,4.543,4.543,0,0,1,1.187-.618,1.808,1.808,0,0,1-.077,1.174c-.015.058.045.135.034.2a1.206,1.206,0,0,0,.711,1.354.912.912,0,0,0,1.235-.711,13.172,13.172,0,0,1,1.572-3.685c.168-.239.282-.562.707-.5a12.871,12.871,0,0,0,.015,1.9,3.355,3.355,0,0,0,.245,1.812,1.248,1.248,0,0,0,1.19.693c.547-.019.617-.348.758-.782a10.357,10.357,0,0,1,.884-2.23c.113-.187.128-.5.425-.5.347,0,.4.38.448.565a4.552,4.552,0,0,0,2.653,2.809c.58.312.94.2,1.345-.362.3-.419.152-1.021.621-1.326a.35.35,0,0,1,.15.408c-.209.617.233.916.615,1.217a.825.825,0,0,0,1.333-.377,8.5,8.5,0,0,1,1.273-2.428c.721-1.09,1.278-.734,1.709-.04.086.139.114.314.2.453.612.99,1.233,1.979,2.623,1.882a1.06,1.06,0,0,0,.994-.775C-948.139,360-948.487,359.731-948.962,359.679Zm-27.5,1.072a4.74,4.74,0,0,1-2.026,1.8c-.6.327-1.223-.154-1.153-.883a8.916,8.916,0,0,1,1.116-3.493,3.148,3.148,0,0,1,1.227-1.5,4.383,4.383,0,0,0,.818,3.353C-976.247,360.391-976.318,360.483-976.467,360.751Zm1.767-3.371c-.131.323-.306.628-.515,1.047-.252-.528-.539-.959-.257-1.426.1-.169.014-.667.412-.482A.663.663,0,0,1-974.7,357.38Z" transform="translate(-283.335 -22.971)"/>
    <path id="パス_14" data-name="パス 14" d="M-322.579,368.206a4.674,4.674,0,0,0-2.311-.461,4.1,4.1,0,0,0-2.995,1.924,3.249,3.249,0,0,0,2.861,4.248,3.512,3.512,0,0,0,3.553-2.14A2.529,2.529,0,0,0-322.579,368.206Zm-.274,2.192a2.9,2.9,0,0,1-2.132,1.667.767.767,0,0,1-.882-.249c-.271-.322.118-.628.244-.677.515-.2-.069-.435.065-.726.3-.65.648-1.054,1.395-.99l.3.027a.892.892,0,0,1,.968.474A.526.526,0,0,1-322.854,370.4Z" transform="translate(-855.16 -40.027)"/>
  </g>
</svg>
