<svg xmlns="http://www.w3.org/2000/svg" width="22.788" height="23.626" viewBox="0 0 22.788 23.626">
  <g id="グループ_115" data-name="グループ 115" transform="translate(-268.996 -304.408)">
    <g id="パス_58" data-name="パス 58" transform="translate(279.724 304.328) rotate(45)" fill="none" stroke-linecap="round">
      <path d="M7.586.057A7.725,7.725,0,0,1,15.229,7.7,7.449,7.449,0,0,1,7.7,15.229,7.725,7.725,0,0,1,.057,7.586,7.449,7.449,0,0,1,7.586.057Z" stroke="none"/>
      <path d="M 7.527099132537842 1.057088851928711 C 5.781469345092773 1.057088851928711 4.14832878112793 1.733968734741211 2.928508758544922 2.963039398193359 C 1.70862865447998 4.192169189453125 1.044078826904297 5.831138610839844 1.057278633117676 7.578049182891846 C 1.084789276123047 11.21764945983887 4.068188667297363 14.20104885101318 7.707849025726318 14.22854900360107 L 7.758759021759033 14.22873878479004 C 9.504379272460938 14.22873878479004 11.13751888275146 13.55185890197754 12.35732936859131 12.32279872894287 C 13.57720947265625 11.09366893768311 14.24174880981445 9.45469856262207 14.22854900360107 7.707778930664062 C 14.20104885101318 4.068188667297363 11.21764945983887 1.084789276123047 7.577989101409912 1.057278633117676 L 7.527099132537842 1.057088851928711 M 7.527098655700684 0.05708789825439453 C 7.546751499176025 0.05708789825439453 7.565919876098633 0.05716037750244141 7.585608959197998 0.05730915069580078 C 11.7750186920166 0.08896923065185547 15.19686889648438 3.510819435119629 15.22851943969727 7.700229167938232 C 15.26003074645996 11.86995983123779 11.9207706451416 15.22874069213867 7.758757591247559 15.22874069213867 C 7.739105224609375 15.22874069213867 7.719918251037598 15.22866821289062 7.700229167938232 15.22851943969727 C 3.510819435119629 15.19686889648438 0.08896923065185547 11.7750186920166 0.05730915069580078 7.585608959197998 C 0.02580738067626953 3.415878295898438 3.365085601806641 0.05708789825439453 7.527098655700684 0.05708789825439453 Z" stroke="none" fill="#000"/>
    </g>
    <line id="線_15" data-name="線 15" x2="9.358" transform="translate(284.461 320.711) rotate(45)" fill="none" stroke="#000" stroke-linecap="round" stroke-width="1"/>
  </g>
</svg>
